<svg xmlns="http://www.w3.org/2000/svg" width="51" height="26" fill="none"><path fill="#030E14" d="M.763 25.382s.217-.949.78-2.532c.563-1.584 1.511-3.82 2.966-6.344a36.612 36.612 0 0 1 2.605-3.955c.99-1.383 2.235-2.701 3.57-4.036 1.367-1.286 2.894-2.54 4.599-3.61 1.728-1.053 3.553-2.034 5.523-2.717C22.743 1.416 24.777.91 26.787.475c1.03-.136 2.042-.33 3.055-.402.997-.04 2.002-.064 2.983-.008.973.097 1.922.185 2.83.362.9.21 1.785.442 2.645.684 1.648.562 3.2 1.117 4.535 1.84.667.338 1.302.676 1.897 1.014.579.37 1.125.715 1.616 1.077.498.354.949.675 1.383.989.426.321.78.659 1.117.94 1.294 1.174 1.97 1.93 1.97 1.93a.353.353 0 0 1-.04.514.394.394 0 0 1-.258.097h-.024s-1.029-.048-2.701-.298c-.812-.136-1.833-.28-2.95-.45a33.85 33.85 0 0 1-1.777-.29c-.62-.08-1.279-.152-1.946-.273-.66-.088-1.343-.225-2.058-.273-.708-.096-1.44-.185-2.179-.281-.756-.065-1.511-.129-2.267-.225-.772-.073-1.544-.113-2.34-.201-.787-.105-1.575-.097-2.395-.21-.804-.04-1.624-.08-2.453-.112-1.648.024-3.352.129-5 .539-1.664.353-3.256.98-4.816 1.672a33.258 33.258 0 0 0-4.357 2.524 36.869 36.869 0 0 0-6.762 6.263c-1.776 2.107-2.999 4.084-3.859 5.467-.836 1.4-1.23 2.235-1.23 2.235-.08.185-.281.241-.458.185-.153-.072-.217-.241-.185-.402Z"/><path fill="url(#a)" d="M1.737 23.487s.274-.884.94-2.388c.339-.74.765-1.632 1.32-2.628.265-.507.562-1.03.908-1.576.313-.547.691-1.118 1.101-1.68.193-.29.402-.595.603-.885.225-.29.467-.587.692-.884.233-.298.466-.603.715-.909.25-.297.515-.595.788-.892.265-.314.53-.611.812-.925.273-.297.595-.579.893-.876.305-.298.61-.595.924-.892.306-.298.667-.563 1.005-.845.346-.281.683-.554 1.03-.852.353-.281.747-.506 1.109-.772.755-.514 1.503-1.06 2.323-1.487 1.608-.949 3.353-1.696 5.121-2.331.909-.266 1.793-.547 2.726-.788.908-.177 1.825-.346 2.725-.515.933-.096 1.85-.185 2.766-.265.916 0 1.809-.016 2.693.016.885.096 1.753.129 2.597.265.828.169 1.656.282 2.436.523 1.568.41 3.015.908 4.293 1.487.322.153.635.29.94.426.29.161.596.314.877.466.555.306 1.077.62 1.552.925a24.165 24.165 0 0 1 2.404 1.72c1.278 1.038 1.889 1.745 1.889 1.745s-.667-.66-1.986-1.616a21.824 21.824 0 0 0-2.452-1.592c-.49-.281-1.021-.57-1.592-.836-.273-.145-.57-.281-.876-.442-.306-.129-.611-.25-.94-.386-1.263-.539-2.702-.997-4.246-1.35-.771-.21-1.575-.274-2.412-.435-.82-.112-1.656-.144-2.516-.225-.868-.016-1.737.008-2.629.008-.876.097-1.777.185-2.661.274-.893.176-1.809.37-2.726.538-.86.233-1.744.53-2.612.804-1.745.595-3.441 1.319-5.01 2.227-.82.394-1.543.925-2.29 1.415-.362.25-.748.475-1.094.756l-1.013.82c-.338.281-.683.53-.989.82-.321.29-.619.579-.924.86-.298.282-.62.547-.9.852l-.829.877c-.273.29-.538.579-.812.86-.241.306-.49.587-.723.884a51.32 51.32 0 0 0-.708.845c-.217.28-.426.578-.619.852a22.65 22.65 0 0 0-1.142 1.64 18.402 18.402 0 0 0-.972 1.52 32.692 32.692 0 0 0-1.431 2.556c-.74 1.423-1.078 2.291-1.078 2.291Z"/><defs><linearGradient id="a" x1="25.828" x2="25.828" y1="1.093" y2="23.487" gradientUnits="userSpaceOnUse"><stop stop-color="#C9EC06"/><stop offset="1" stop-color="#1A5B43"/></linearGradient></defs></svg>