<svg xmlns="http://www.w3.org/2000/svg" width="25" height="24" fill="none"><g clip-path="url(#a)"><path fill="#fff" d="M9.129 24H5.286a1.165 1.165 0 0 1-1.165-1.164v-8.67H1.88a1.166 1.166 0 0 1-1.164-1.163V9.288c0-.642.522-1.164 1.164-1.164h2.242v-1.86c0-1.845.58-3.414 1.675-4.538C6.896.596 8.434 0 10.243 0l2.932.005c.64 0 1.162.523 1.162 1.164v3.449c0 .642-.522 1.164-1.164 1.164H11.2c-.602 0-.756.121-.788.158-.055.062-.119.235-.119.714v1.47h2.732A1.168 1.168 0 0 1 14.2 9.289l-.002 3.714c0 .642-.522 1.164-1.164 1.164h-2.74v8.669c0 .642-.523 1.164-1.165 1.164Zm-3.6-1.407h3.357v-9.056c0-.429.349-.777.777-.777h3.128l.002-3.23h-3.13a.778.778 0 0 1-.777-.776v-2.1c0-.55.056-1.175.47-1.645.502-.568 1.292-.633 1.843-.633h1.73V1.41l-2.687-.004c-2.907 0-4.714 1.861-4.714 4.857v2.49a.778.778 0 0 1-.777.777h-2.63v3.229h2.63c.429 0 .777.348.777.777v9.056Z"/></g><defs><clipPath id="a"><path fill="#fff" d="M.668 0h24v24h-24z"/></clipPath></defs></svg>