<svg xmlns="http://www.w3.org/2000/svg" width="45" height="24" fill="none"><path fill="#030E14" d="M44.113 23.297s-.12-.185-.321-.555c-.201-.362-.515-.884-.9-1.528-.41-.635-.885-1.39-1.488-2.219-.33-.378-.595-.836-.949-1.254-.37-.434-.715-.892-1.101-1.334-.804-.893-1.672-1.825-2.645-2.726a47.23 47.23 0 0 0-3.192-2.661c-.57-.426-1.134-.916-1.753-1.335-.643-.41-1.23-.892-1.897-1.318-.683-.386-1.383-.772-2.074-1.166-.724-.354-1.488-.635-2.227-.965l-.563-.225-.072-.024-.04-.016-.017-.008c.033.008-.096-.024.073.008l-.17-.048-.297-.089-1.246-.385-1.238-.378c-.41-.113-.78-.177-1.157-.266a32.908 32.908 0 0 0-4.623-.74c-.78-.015-1.544-.112-2.276-.064-.731.049-1.47.016-2.17.113-1.407.153-2.742.402-3.932.756-.595.185-1.173.353-1.704.579-.53.2-1.03.426-1.487.659-.925.442-1.68.924-2.308 1.326-.61.418-1.069.78-1.374 1.037-.306.258-.45.419-.45.419a.291.291 0 0 1-.41 0C0 8.793-.009 8.64.064 8.52c0 0 .144-.193.401-.523.265-.321.66-.796 1.222-1.343a17.523 17.523 0 0 1 2.187-1.816c.45-.33.949-.644 1.487-.95.523-.337 1.118-.618 1.729-.916 1.238-.595 2.653-1.101 4.188-1.52 1.536-.393 3.192-.626 4.929-.747 1.728-.088 3.513-.088 5.378.169.45.056.94.096 1.383.169l1.278.233 1.295.241.305.056.169.033.257.072.668.193c.9.25 1.8.506 2.693.756.892.313 1.777.635 2.637.956.876.354 1.72.788 2.54 1.19.837.41 1.568 1.005 2.316 1.496 1.455 1.117 2.725 2.371 3.73 3.706a21.473 21.473 0 0 1 2.404 4.004 20.473 20.473 0 0 1 1.23 3.722c.105.563.185 1.101.266 1.592.032.498.08.948.104 1.358.016.829-.024 1.48-.088 1.914a7.969 7.969 0 0 1-.105.675c-.056.153-.209.266-.386.217a.299.299 0 0 1-.169-.16Z"/><path fill="url(#a)" d="M1.202 7.624S1.75 6.95 2.955 6a20.15 20.15 0 0 1 2.25-1.552c.451-.273.933-.562 1.48-.828.274-.136.539-.265.82-.41.29-.112.587-.233.893-.361.297-.129.61-.242.924-.37.322-.113.66-.21.989-.322.338-.104.684-.225 1.03-.305.36-.089.723-.17 1.093-.25.723-.193 1.495-.297 2.267-.402.796-.144 1.591-.176 2.404-.2.41-.017.836-.057 1.254-.049L19.605 1c.426.025.836.033 1.262.057.434.056.852.104 1.294.153 1.713.168 3.393.562 5.122.972.828.266 1.656.53 2.468.796.82.306 1.608.708 2.404 1.045 1.56.764 3.015 1.649 4.317 2.678a19.618 19.618 0 0 1 3.353 3.328c.249.281.474.579.667.892.2.298.418.595.61.885.403.587.7 1.198 1.022 1.768.297.58.53 1.174.796 1.713.209.547.378 1.085.57 1.592.145.506.274.98.395 1.43.096.451.168.853.265 1.23.12.74.185 1.343.209 1.745.032.41.04.628.04.628l-.088-.611a23.48 23.48 0 0 0-.322-1.729l-.313-1.206c-.153-.434-.298-.892-.459-1.399-.209-.49-.426-.997-.65-1.535-.266-.515-.507-1.086-.829-1.648-.346-.54-.643-1.15-1.061-1.697-.201-.281-.418-.563-.62-.844a6.154 6.154 0 0 0-.683-.844 22.044 22.044 0 0 0-3.336-3.168c-1.254-.98-2.685-1.833-4.189-2.548-.78-.322-1.511-.692-2.323-.981-.828-.257-1.648-.507-2.476-.764-1.64-.41-3.329-.836-4.993-1.005a30.583 30.583 0 0 1-1.238-.177 29.982 29.982 0 0 1-1.246-.064l-1.222-.048c-.41-.024-.82.016-1.206.024-.804.024-1.6.056-2.356.153-.78.088-1.52.168-2.235.321-.37.08-.732.137-1.077.217-.346.08-.684.185-1.021.274-.338.088-.651.192-.981.28-.314.113-.62.218-.917.339-.305.112-.595.217-.876.33-.29.128-.57.248-.828.361-.547.233-1.037.498-1.495.74a23.992 23.992 0 0 0-2.324 1.43c-1.23.877-1.833 1.512-1.833 1.512Z"/><defs><linearGradient id="a" x1="22.801" x2="22.801" y1=".95" y2="21.911" gradientUnits="userSpaceOnUse"><stop stop-color="#C9EC06"/><stop offset="1" stop-color="#1A5B43"/></linearGradient></defs></svg>