<svg xmlns="http://www.w3.org/2000/svg" width="569" height="171" fill="none"><path fill="#fff" d="M553.38 58.583c-39.644-4.301-107.337-1.713-186.6-4.301-79.255-2.573-120.531 5.169-148.597-7.743-28.067-12.895-40.456-7.742-61.102-12.027-20.637-4.325-11.569-6.03-4.116-10.339 7.429-4.301-14.857-8.61-61.921-11.191C43.98 10.417 40.675 4.395 15.905.078-8.857-4.223 2.688 170.43 2.688 170.43c47.056 0 51.189-5.169 62.758-6.021 11.553-.861 93.276-4.294 76.77-11.175-16.521-6.89-.836-9.479 12.389-10.331 13.209-.853 28.067 5.161 45.392 6.881 17.334 1.713 108.994-18.073 88.348-30.108-20.638-12.059 14.849-9.471 33.011-9.471 18.185 0 114.758-6.898 94.136-13.764-20.654-6.882-9.085-8.602 28.894-12.051 37.964-3.441 43.744-8.603 71.007-7.75 27.246.86 77.614-13.74 37.987-18.057ZM65.454 131.719c-9.921 1.713-14.761-3.32-3.313-5.161 10.733-1.729 13.201 3.441 3.313 5.161Zm23.934-69.695c-11.561 4.3-12.39 1.728-37.152 2.588-24.77.853-44.571-6.03-37.15-12.911 7.428-6.874 32.23-5.033 52.008-6.03 34.667-1.704 33.863 12.06 22.294 16.353Zm56.961 22.374c-13.202 3.449-17.575-8.948-4.961-9.463 21.466-.852 18.17 6.022 4.961 9.463Zm52.024 22.374c-26.426-3.457 7.501-10.411 20.63-8.61 43.76 6.022 5.78 12.051-20.63 8.61Z"/></svg>