<svg xmlns="http://www.w3.org/2000/svg" width="29" height="12" fill="none"><path fill="#030E14" d="M.313 5.263s.353-.386 1.085-.933c.362-.273.812-.579 1.383-.908.546-.298 1.181-.676 1.905-.957.724-.33 1.528-.595 2.42-.844a18.715 18.715 0 0 1 2.838-.53c.997-.081 2.042-.186 3.12-.065.522.048 1.069.032 1.591.145l1.6.321c.53.097 1.053.274 1.56.467.506.168 1.005.377 1.511.562.973.426 1.873.973 2.726 1.464.836.578 1.584 1.19 2.291 1.776.7.563 1.23 1.27 1.76 1.825.531.58.998 1.126 1.32 1.673.353.53.634 1.02.86 1.399.466.787.667 1.238.667 1.238s-.442-.266-1.174-.772c-.362-.266-.812-.563-1.294-.933-.459-.386-1.062-.715-1.673-1.117-.305-.193-.635-.402-.965-.603-.321-.201-.643-.459-1.02-.627-.716-.386-1.488-.788-2.252-1.206-.82-.33-1.648-.676-2.492-1.03-.434-.136-.868-.257-1.302-.41-.434-.152-.869-.297-1.327-.37-.892-.192-1.793-.417-2.685-.49-.9-.16-1.801-.16-2.677-.217-.869-.008-1.737 0-2.54.049-.82.064-1.6.096-2.324.2-1.44.177-2.67.41-3.53.587-.868.17-1.383.306-1.383.306Z"/><path fill="url(#a)" d="M2.173 4.314s.37-.25 1.07-.579c.699-.33 1.695-.796 2.958-1.174 1.262-.385 2.798-.747 4.454-.9.82-.064 1.688-.104 2.556-.056.885.04 1.777.169 2.661.305.869.193 1.729.418 2.549.724.418.16.828.313 1.206.514.402.17.78.37 1.142.571.37.201.723.41 1.045.643.345.21.659.443.956.684.62.458 1.142.948 1.633 1.39.466.483.9.893 1.238 1.32.337.425.643.77.86 1.092.442.628.683.981.683.981s-.281-.313-.804-.876c-.233-.297-.587-.611-.964-.989-.362-.394-.837-.756-1.31-1.198-.507-.402-1.046-.86-1.665-1.246a8.937 8.937 0 0 0-.965-.61c-.33-.194-.683-.411-1.037-.58a12.747 12.747 0 0 0-1.11-.522c-.37-.17-.78-.314-1.165-.459a18.992 18.992 0 0 0-2.477-.667c-3.36-.667-6.865-.305-9.39.306a26.31 26.31 0 0 0-3.023.892c-.7.241-1.101.434-1.101.434Z"/><defs><linearGradient id="a" x1="14.678" x2="14.678" y1="1.583" y2="9.829" gradientUnits="userSpaceOnUse"><stop stop-color="#C9EC06"/><stop offset="1" stop-color="#1A5B43"/></linearGradient></defs></svg>