<svg xmlns="http://www.w3.org/2000/svg" width="1440" height="627" fill="none"><g clip-path="url(#a)"><path fill="url(#b)" d="M1485.92 227.354c-77.74 0-145.86 39.62-169.61 94.718-28.33-14.64-64.51-19.36-99.18-10.339-37.39 9.722-64.21 33.126-74.56 60.872-24.94-9.586-52.96-14.965-82.58-14.965-74.25 0-138.511 33.82-169.464 83.033-22.615-16.884-53.101-27.258-86.691-27.258-45.416 0-85.253 18.957-107.498 47.38-17.052-62.123-87.013-108.655-170.762-108.655-67.389 0-125.861 30.154-155.013 74.313-29.964-19.06-68.031-30.462-109.468-30.462-65.185 0-122.034 28.209-152.062 70.021h-2.629c-7.227-22.349-25.075-41.307-49.05-53.377 6.199-14.262 9.576-29.553 9.576-45.478 0-77.226-79.215-139.811-176.929-139.811v420.333h1595.93l-.01-420.325Z"/><path fill="#748384" d="M1445.32 494.672c-8.04-16.13-16.39-29.63-25.09-38.3-2.88-2.861-23.07-7.966-23.07-7.966-11.57-19.309-26.09-49.522-39.18-54.628-1.3-.522-8.63 12.319-8.63 12.319-11.81-26.119-27.84-55.133-43.9-72.266-3.3-3.529-15.71-8.686-15.71-8.686-7.19-19.206-10.7-28.595-17.55-46.978-13.51-13.389-29.15-23.103-44.7-29.862-2.81-1.251-3.16.856-3.16.856-9.37 23.386-11.69 52.615-14.43 78.682-2.52.685-3.8 1.002-6.33 1.688-5.15 11.676-7.79 17.535-13.19 29.733 4.34 36.193 12.16 71.795 19.22 107.097-4.84 4.72-7.25 7.076-12.17 11.813 1.59 56.101 5.5 112.613 16.61 166.863 77.53 4.669 154.38 3.016 231.27-7.247l.01-143.118Z"/><path fill="#677475" d="M1272.22 489.169c-6.8-14.52-10.13-21.716-16.69-35.825-16.81-9.705-24.98-14.408-41.02-24.063-1.87 14.52-2.87 21.939-4.9 37.076-4.84 4.72-7.25 7.075-12.17 11.813 1.59 56.1 5.5 112.613 16.61 166.863 46.03 2.793 91.97 3.632 138.04 1.988-22.45-51.887-45.01-103.687-67.51-155.497-4.95-.916-7.42-1.387-12.36-2.355Z"/><path fill="#5D6869" d="M1445.32 494.706c-8.05-16.165-16.4-29.666-25.09-38.335-2.89-2.878-23.07-7.966-23.07-7.966-11.56-19.309-26.12-49.54-39.17-54.628-1.31-.523-8.64 12.318-8.64 12.318-5.15 5.551-7.73 8.335-12.97 13.938 1.73 11.71 2.57 17.672 4.26 29.751-4.53 2.895-6.8 4.334-11.37 7.23 11.5 62.859 21.69 126.105 31.13 189.598 28.42-1.807 56.71-4.685 84.92-8.617V494.706Z"/><path fill="#677475" d="M1260.25 361.061c-6.89 7.83-10.39 11.762-17.52 19.711 4.66 24.911 9.27 49.856 13.82 74.801 6.17 13.253 9.3 19.977 15.67 33.598 4.94.968 7.41 1.439 12.36 2.355 22.51 51.818 45.06 103.619 67.51 155.496 3.32-.171 4.98-.231 8.3-.419-9.44-63.494-19.63-126.739-31.13-189.599 4.56-2.895 6.85-4.335 11.36-7.23-1.26-9.055-1.89-13.518-3.18-22.367-10.69-16.216-15.93-24.225-26.14-40.039a2417.144 2417.144 0 0 1-51.05-26.307Z"/><path fill="#728182" d="M1349.35 406.097c-11.81-26.119-27.84-55.133-43.9-72.266-3.3-3.529-15.71-8.686-15.71-8.686-7.19-19.206-10.7-28.595-17.55-46.978-13.51-13.389-29.15-23.103-44.7-29.862-2.81-1.251-3.16.856-3.16.856-9.37 23.386-11.69 52.615-14.43 78.682-2.52.685-3.8 1.002-6.33 1.688-5.15 11.676-7.79 17.535-13.19 29.733 4.34 36.193 12.16 71.795 19.22 107.097 2.04-15.145 3.04-22.555 4.9-37.075 16.03 9.654 24.21 14.357 41.02 24.063.41.899.62 1.336 1.03 2.227-4.54-24.945-9.17-49.891-13.82-74.801 7.13-7.95 10.62-11.882 17.52-19.712a2370.526 2370.526 0 0 0 51.06 26.316c10.2 15.814 15.44 23.823 26.13 40.039-.42-2.964-.65-4.437-1.07-7.375 5.25-5.611 7.83-8.387 12.98-13.946Z"/><path fill="#849697" d="M1257.68 370.389c-4.36 4.951-6.56 7.444-11.02 12.447 4.11 20.996 6.19 31.789 10.42 54.062 10.64 14.785 16.09 22.281 27.22 37.409 9.5 19.325 14.38 29.16 24.32 49.171-7.89-37.864-15.95-75.675-24.29-113.35-10.96-16.131-16.29-24.089-26.65-39.739Z"/><path fill="#748384" d="M1310.05 394.155c-3.86 14.837-5.91 22.401-10.13 37.897 6.68 18.821 10.1 28.458 17.03 48.118a4252.693 4252.693 0 0 0-6.9-86.015Z"/><path fill="#707E7F" d="M1356.3 400.847c-5.88 8.001-8.88 12.01-14.92 20.191 3.23 2.998 4.86 4.48 8.15 7.444 2.8-11.221 4.15-16.755 6.77-27.635Zm13.45 29.849c.44 8.318.67 12.533 1.06 21.065a7758.084 7758.084 0 0 1 22.69 63.862c-.55-23.472-.91-34.805-1.79-56.855-8.9-11.265-13.3-16.901-21.96-28.072Zm-28.59 0c.1.788 3.95 25.648 3.95 25.648-4.7 1.071-7.08 1.593-11.78 2.664 3.77 23.172 5.64 35.122 9.36 59.75 4.75-23.454 6.96-34.771 11.12-56.735-5.11-12.695-7.64-18.965-12.65-31.327Z"/><path fill="#849697" d="M1204.48 331.16c-4.44 11.144-6.72 16.695-11.37 28.294 5.08 26.522 10.14 53.034 15.14 79.573-.04-27.455-.2-54.928-.49-82.383.63-10.639.94-15.779 1.52-26.033-1.93.214-2.87.352-4.8.549Zm21.38-78.315c-5.56 33.023-12.06 67.426-12.29 101.477a32948.23 32948.23 0 0 1 15.08 70.407c2.6-21.468 3.84-31.79 6.1-51.869 6.1-10.588 9.05-15.882 14.91-26.102-3.16-22.333-6.4-44.656-9.67-66.955-5.76-10.896-8.6-16.284-14.13-26.958Zm39.13 24.755c-.05-.634-18.75 2.844-18.75 2.844 6.53 23.309 13.09 46.626 19.63 69.935-.21-24.242-.46-48.519-.88-72.779Z"/><path fill="#566161" d="M1336.38 420.037c5.24-5.603 7.83-8.378 12.97-13.938-11.81-26.118-27.84-55.133-43.9-72.265-3.3-3.53-15.7-8.687-15.7-8.687 7.73 21.802 15.63 43.5 23.5 65.233 9.48 14.64 14.32 22.033 24.2 37.024-.42-2.947-.65-4.42-1.07-7.367Z"/><path fill="#535D5E" d="M1445.32 502.673c-8.03-19.36-16.28-37.375-25.1-46.293-2.85-2.878-23.06-7.966-23.06-7.966 14.73 30.119 29.41 60.229 43.97 90.511 0 0 1.61.42 4.19 1.071v-37.323Z"/><path fill="#728182" d="M1343.48 627.149c-19.61-45.221-39.26-90.417-58.9-135.622-4.95-.916-7.42-1.388-12.36-2.356 8.85 38.163 17.41 76.412 25.83 114.729a1405.79 1405.79 0 0 0 45.43 23.249Z"/><path fill="#92A2A2" d="M1208.03 472.39c-3.36 3.058-5.05 4.583-8.45 7.667 1.41 37.443 2.71 75.692 8.41 112.45 4.29-18.469 6.38-27.506 10.38-45.17-3.85-24.877-7.49-49.822-10.34-74.947Zm7.09-36.776c-1.1 13.415-1.66 20.242-2.86 34.18 3.94 25.193 7.83 50.447 11.66 75.675 15.58 9.071 23.36 13.2 39.57 22.255-16.17-44.022-32.31-88.045-48.37-132.11Z" opacity=".5"/><path fill="#7D8E8E" d="M1445.31 96.937c-3.91-7.076-7.79-14.212-11.61-21.399-.13-.051-.24-.103-.36-.154-19.48-7.581-39.48-15.908-59.31-23.523-9.22-3.53-18.41-7.307-27.4-11.933-33.33.762-66.43 4.523-99.65 8.035-12.41 23.292-22.55 46.044-31.98 71.846 2.21 69.55 8.95 138.286 17.38 206.543 9.44 76.48 20.83 153.268 33.02 229.063 7.16 44.451 14.91 89.09 22.03 133.669.85 5.252 1.67 10.571 2.5 15.908 52.4-10.22 104.19-23.54 155.37-39.919V96.937h.01Z"/><path fill="#809293" d="M1267.03 124.26c-.12-.565-.28-1.122-.42-1.687.14.788.3 1.559.42 2.321v-.634Z" opacity=".7"/><path fill="#809293" d="M1445.31 96.937c-3.91-7.076-7.79-14.212-11.61-21.399-.13-.051-.24-.103-.36-.154-19.48-7.581-39.48-15.908-59.31-23.523-9.22-3.53-18.41-7.307-27.4-11.933-33.33.762-66.43 4.523-99.65 8.035-12.41 23.292-22.55 46.044-31.98 71.846 2.21 69.55 8.95 138.286 17.38 206.543 9.44 76.48 20.83 153.268 33.02 229.063 7.16 44.451 14.91 89.09 22.03 133.669.85 5.252 1.67 10.571 2.5 15.908 52.4-10.22 104.19-23.54 155.37-39.919V96.937h.01Zm-140.89 152.866c-.08.3-.47.368-.77.137-8.07-5.705-16.73-11.222-23.08-18.803-7.14-8.584-9.23-18.923-11.21-28.56-.35-1.671-.66-3.358-.97-5.003-1.51 12.952-2.86 26.299-4.74 39.568-4.77 33.717-10.48 68.094-12.08 101.656-.03.617-1.04.6-1.12-.085-4.62-35.97-10.29-72.694-15.55-109.007-2.6-17.955-5.1-35.473-7.46-52.666-2.05-15.093-5.07-30.067-4.84-44.219.25-14.554 5.6-26.538 11.07-38.369 3.73-8.103 7.77-15.976 11.9-23.694 1.73-5.38 3.93-10.477 6.9-14.948.14-.223.51-.206.68.068 3.84 6.33 3.92 13.201 5.01 20.02 1.33 8.326 2.82 16.661 4.37 25.013.36 1.945.73 3.881 1.09 5.826 1.11 4.72 2.23 9.423 3.43 14.134.19-14.323 2.09-28.192 6.85-40.347a.423.423 0 0 1 .75-.035c1.3 2.03 2.59 4.087 3.79 6.177 13.01 22.58 22.07 49.136 28.54 76.54 6.73 28.457 4.11 58.628-2.56 86.597Z" opacity=".7"/><path fill="#809293" d="M1445.31 144.454c-7.83-3.966-15.52-8.549-22.97-12.747-4.98-2.809-10.09-5.491-14.68-8.969-3.85-2.912-7.21-6.356-10.32-9.919-6.72-7.744-12.44-16.08-17.19-24.569-1.03-1.824-2-3.632-2.94-5.465-5.06-8.138-9.36-16.55-12.85-25.1-.14-.368.23-.608.54-.436 18.61 10.048 36.76 24.003 52.42 40.587 9.7 10.305 19.46 20.962 27.99 33.178V96.937a1496.66 1496.66 0 0 1-11.62-21.399c-.13-.051-.24-.103-.35-.154-19.49-7.581-39.49-15.908-59.32-23.523-9.21-3.53-18.4-7.307-27.4-11.933-33.33.762-66.43 4.523-99.65 8.035-.03.034-.03.051-.07.069 2.58 2.03 5.44 3.666 8.21 5.294 4.26 2.475 8.44 5.19 12.2 8.84 8.5 8.198 14.24 18.794 20.62 29.014 7.75 12.438 15.87 25.031 22.78 38.215 3.13 5.953 6.01 11.95 8.2 18.134 1.93 5.491 3.76 11.094 6.84 16.396-11.84-35.841-27.85-69.318-40.22-103.67-.18-.453.36-.565.65-.35 10.64 7.495 18.97 18.683 27.94 29.005 9.88 11.359 20.58 22.367 31.37 33.657 3.42 3.564 7.34 7.933 7.05 12.413-.28 4.497-3.28 7.692-5.92 10.691-3.59 4-6.71 8.429-9.95 12.815-3.44 4.566-6.85 9.234-9.72 14.503-6.31 11.598-9.08 25.45-11.78 39.585-1.18 6.262-2.57 12.327-2.7 19.077-.12 5.636.16 11.607-1.05 16.995-.82 3.752-2.76 8.181-7.58 7.547-3.18-.419-6.37-1.756-9.53-2.544-3.04-.737-6.08-1.388-9.09-1.987-2.09-.437-4.18-.84-6.29-1.268-6.99 17.415-14.43 35.37-18.69 55.715-2.71 12.833-3.63 26.299-3.89 40.588-.24 13.534-.22 27.489-2.05 41.426-.1.686-1.03.669-1.18-.085-5.69-24.38-8.45-51.869-13.47-76.926-3.82-19.137-8.53-38.163-12.21-56.503-2.18-10.743-4.26-21.331-6.34-31.773 3.12 34.651 7.05 69.25 11.28 103.516 9.47 76.497 20.83 153.268 33.02 229.063 7.16 44.451 14.91 89.09 22.03 133.669.85 5.252 1.67 10.571 2.5 15.908 52.4-10.22 104.19-23.54 155.37-39.919V144.454h.01Zm-57.74-5.242c-.08.188-.42.231-.65.034-25.02-20.628-49.06-45.685-73.5-68.874-8.08-5.705-16.28-11.093-22.82-18.606-.19-.222-.14-.642.11-.694 6.69-1.661 14.02-2.047 21.31-1.661 5.73.308 11.56.985 17.41 2.064 4.86.891 9.96 1.765 14.88 3.752 3.44 1.397 6.78 3.512 9.41 6.708 3.66 4.437 5.92 9.662 8.48 14.614 3.76 7.255 7.69 14.468 11.2 21.784 2.51 5.234 4.55 10.537 6.96 15.796 2.23 4.866 4.54 9.809 6.17 14.726 1.15 3.495 2.31 7.495 1.04 10.357Z" opacity=".7"/><path fill="#7A8A8B" d="M1445.32 157.549c-16.11-5.808-32.3-11.231-48.6-16.113-16.99 8.052-33.66 17.364-49.94 27.823-10.64 19.711-18.9 41.744-24.72 64.933 6.88 67.597 22.19 132.161 37.13 196.991 12.74 55.313 25.8 110.746 40.53 164.834 6.99 25.699 14.23 51.552 21.16 77.448 8.17-2.476 16.3-5.071 24.44-7.693V157.549Z"/><path fill="#7A8A8B" d="M1445.32 355.697c-5.3-6.194-8.65-13.167-12.62-19.814-3.31-5.543-7.63-10.443-12.36-15.111-18.28-15.959-36.77-31.259-55.39-46.413-6.19-5.037-12.83-9.474-18.68-14.725-4.49-4.052-9.07-9.021-10.16-14.486-.69-3.444-.03-6.425.53-9.483.66-3.563 1.42-7.11 2.19-10.588 1.47-6.476 3.11-12.935 4.24-19.343.18-1.139.42-2.338.61-3.477 1.6-9.518 1.49-21.485 8.07-27.927 2.67-2.612 7.07-4.72 11.4-4.6 4.07.154 6.27 2.81 8.48 6.442 2.77 4.566 4.87 9.32 7.67 13.886 4.91 8.044 9.96 16.113 14.97 24.209 9.6 15.539 20.03 31.267 27.95 47.568 3.88 8.01 7.16 16.096 9.41 24.329 2.26 8.249 3.81 16.601 5.42 24.996 1.55 8.198 3.28 16.413 5.97 24.8.8 2.51 1.61 5.037 2.29 7.598v-75.606c-9.56-16.311-18.78-33.109-27.73-49.959-10.56-19.925-22.67-39.619-28.23-62.646-.06-.282.28-.471.59-.317 4.79 2.305 9.13 5.937 13.07 9.809 4.8 4.686 9.29 9.62 13.98 14.485 5.41 5.526 11.03 10.914 16.34 16.585 4.05 4.334 8.04 8.72 11.97 13.166v-51.526c-16.11-5.808-32.29-11.231-48.6-16.113-16.99 8.052-33.66 17.364-49.93 27.823-10.65 19.711-18.9 41.744-24.72 64.933 6.88 67.597 22.19 132.161 37.12 196.991 12.75 55.313 25.8 110.746 40.53 164.834 7 25.699 14.24 51.552 21.16 77.448 8.18-2.476 16.31-5.071 24.44-7.693V355.697h.02Z" opacity=".5"/><path fill="#6E7C7C" d="M1445.32 167.593v-9.877c-13.57-4.883-27.2-9.552-40.9-13.921 9.58 5.423 19.26 11.214 29.12 16.936 3.88 2.262 7.81 4.566 11.78 6.862Zm-.01 207.946c-.2.069-.5.052-.67-.154-9.21-9.817-13.27-22.135-19.18-32.998-4.38-8.078-8.12-16.258-12.09-24.294-15.35-12.832-31.53-23.857-47.19-35.618-9.49-7.145-18.85-14.726-27.77-22.324-3.95-3.367-7.88-6.776-11.58-10.357-1.21-1.156-2.44-2.356-3.68-3.529 6.63 63.142 22.07 124.391 36.04 184.913 12.76 55.295 25.8 110.745 40.53 164.833 7 25.699 14.24 51.552 21.16 77.448 8.18-2.475 16.31-5.071 24.44-7.692V375.539h-.01Z" opacity=".6"/><path fill="#768687" d="M1445.32 396.32c-.65-1.302-1.3-2.612-1.95-3.897-11.75-23.455-23.49-47.149-35.29-70.638a16575.86 16575.86 0 0 0-70.07-57.086c-17.09-3.213-34.34-5.217-51.6-5.509-5.56 13.013-11.08 26.667-16.21 41.196 3.41 134.954 25.75 267.998 47.42 399.14 42.94-9.372 85.47-20.731 127.69-34.086l.01-269.12Z"/><path fill="#7A8A8B" d="M1445.32 396.32c-.65-1.302-1.3-2.612-1.95-3.897-11.75-23.455-23.49-47.149-35.29-70.638a16575.86 16575.86 0 0 0-70.07-57.086c-17.09-3.213-34.34-5.217-51.6-5.509-5.56 13.013-11.08 26.667-16.21 41.196 3.41 134.954 25.75 267.998 47.42 399.14 42.94-9.372 85.47-20.731 127.69-34.086l.01-269.12Zm-103.45 84.559c-.79 9.885-2 19.856-3.25 29.947-1.3 10.477-2.42 21.468-3.52 32.158-2.31 22.487-1.25 46.935-4.35 69.131-.11.856-1.18.505-1.38-.172-10.73-34.128-16.61-71.254-22.62-108.398-3.69-22.838-8.1-45.761-11.98-68.668-3.56-20.91-6.8-42.343-9.23-63.228-3.08-26.367-5.42-52.314-1.78-79.358.21-4.104.59-8.147 1.32-11.976.78-4.086 2.27-11.496 7.55-11.427 6.93.119 12.53 9.851 15.3 15.41 5.43 10.914 8.69 22.504 11.74 34.103 3.49 13.286 7.15 26.787 10.05 40.639 3.97 18.923 6.84 38.06 9.41 58.876 2.58 20.602 4.47 41.478 2.74 62.963Zm45.02 152.455c-.27.771-1.14.702-1.41-.069-18.73-54.473-22.09-113.384-25.22-175.207-2.8-15.865-5.44-31.387-3.89-45.847.08-.471.74-.523 1.07-.154 2.35 2.689 4.67 5.568 6.7 8.566 9 13.355 15.47 28.612 20.37 43.954 5.13 16.113 8.51 32.843 8.66 49.796.21 21.21-2.14 42.969-3.11 64.127-.79 17.27 2.89 37.384-3.17 54.834Z" opacity=".5"/><path fill="#7A8A8B" d="M1445.31 396.319c-.64-1.302-1.29-2.613-1.94-3.898-11.76-23.454-23.5-47.149-35.3-70.638-23.32-19.12-46.68-38.128-70.06-57.086-3.8-.685-7.57-1.319-11.35-1.91.67 4.806.98 9.62 1.34 14.443.65 8.498 1.56 17.218 2.39 25.982.83 8.934 1.47 18.186 3.11 27.438 1.68 9.534 3.94 19.205 6.19 29.048 2.06 9.072 4.12 18.306 5.49 27.661 1.41 9.637 1.72 19.291 2.21 29.494.96 20.396 1.21 41.478 1.9 63.356.71 22.752 2.09 45.762 5.13 68.094 3.42 25.048 7.05 50.499 9.76 75.589 2.2 20.157 5.07 41.341 8.01 62.98a1518.615 1518.615 0 0 0 73.13-21.313v-269.24h-.01Zm-97.06-72.043c-1.71-9.406-3.6-18.709-5.89-27.823-.13-.523.49-.874.92-.386 8.99 10.091 18.03 20.431 26.16 31.439 7.77 10.511 15.62 22.204 18.81 34.368 3.07 11.564 2.78 23.694 1.81 35.233-1 12.062-2.35 25.596-5.74 37.495-.13.437-.9.634-1.19.051-10.57-21.047-20.1-42.728-26.45-67.459-3.78-14.58-6.38-28.955-8.43-42.918Zm38.64 309.056c-.28.771-1.14.703-1.42-.068-18.73-54.473-22.08-113.384-25.22-175.207-2.8-15.865-5.43-31.387-3.88-45.847.07-.472.73-.523 1.06-.155 2.36 2.69 4.67 5.569 6.71 8.567 8.99 13.355 15.46 28.611 20.36 43.954 5.14 16.113 8.51 32.843 8.67 49.796.21 21.21-2.15 42.968-3.11 64.127-.79 17.27 2.89 37.384-3.17 54.833Z" opacity=".5"/><path fill="#6B7879" d="M1294.98 511c-2.02-23.343-5.17-46.729-8.61-69.833-4.33-28.877-8.86-57.685-13.79-86.434 5.46 78.99 15.81 156.636 27.35 234.298-.11-1.773-.21-3.529-.3-5.217-1.38-24.114-2.55-48.742-4.65-72.814Z" opacity=".5"/><path fill="#7A8A8B" d="M1445.32 396.317c-.64-1.302-1.3-2.612-1.95-3.897-11.75-23.455-23.49-47.149-35.29-70.638a15962.11 15962.11 0 0 0-70.07-57.086c-11.98-2.21-23.81-3.847-35.35-4.738 4.79 7.642 9.61 15.343 14.13 23.241 6.96 12.267 12.76 24.68 16.84 37.983 4.66 15.205 7.7 30.787 10.86 46.764.33 1.593.7 3.212 1.11 4.848-.12-2.792-.21-5.671-.46-8.318-2.66-28.457-8.64-58.859-11.2-87.436-.05-.523.71-.583 1.03-.103.36.565.73 1.174 1.09 1.739 10.64 6.622 20.46 14.854 29.79 23.737 1.65 1.576 3.29 3.178 4.96 4.755 7.91 6.373 15.5 13.389 21.62 21.313.61.651 1.19 1.319 1.78 1.987 4.37 5.088 7.85 10.828 9.57 16.884 1.87 6.656 2.23 13.355 2.39 20.028.43 17.75.36 36.27 1.01 56.118.67 19.78 2.39 40.373 5.06 61.584 2.71 21.484 5.17 44.022 4.35 65.601-.01.788-1.13.968-1.39.103-9.13-31.225-16.4-64.514-24.98-96.372-2.13-7.932-4.37-15.813-6.58-23.626 2.23 11.111 4.24 22.384 5.71 33.846.96 7.547 1.09 15.025.95 22.606 1.7 8.901 2.71 17.921 2.87 27.121.19 10.477-.37 21.014-1.11 31.756.1 11.53-.25 23.24-1.11 35.07-.29 3.932-.55 7.916-.78 11.959.32 11.076.89 22.589-1.44 33.46-.22 9.355-.36 18.923-.34 28.646 0 8.883-.21 18.083-.15 27.387 19.11-5.286 38.12-10.991 57.06-17.047V396.317h.02Z" opacity=".5"/><path fill="#6B7879" d="M1370.97 687.172c-5.27-46.884-9.6-93.39-18.6-139.255-9.59 48.238-12.84 97.108-13.37 146.93 12.8-2.887 19.19-4.411 31.97-7.675Z" opacity=".9"/><path fill="#768687" d="M1445.32 377.562c-13.67 12.284-26.69 25.836-39.43 41.11 1.55 8.849 3.21 17.801 4.98 26.95 11.69 60.418 23.43 120.819 34.45 181.486V377.562Z"/><path fill="#809293" d="M1445.32 545.599a40129.85 40129.85 0 0 0-13.12-51.629c-4.47-17.467-9.1-34.496-14.4-51.047a.74.74 0 0 1-.33-.437c-.29-1.07-.58-2.244-.89-3.332-1.08-3.281-2.17-6.596-3.3-9.791-.16-.403.05-.668.34-.72.03-.034.08-.017.13-.017h.02c.22-.017.44.086.62.317.01 0 .01.017.03.017 5.51 10.143 17.08 20.748 25.75 31.122 1.74 2.09 3.45 4.18 5.15 6.305v-30.471c-1.65-2.613-3.28-5.234-4.89-7.83-2.83-4.6-7.57-10.81-6.57-15.864.91-4.738 5.14-7.916 7.97-11.274 1.18-1.37 2.33-2.741 3.49-4.111v-19.275c-13.66 12.284-26.68 25.836-39.42 41.11 1.55 8.849 3.21 17.801 4.97 26.95 11.7 60.418 23.44 120.819 34.45 181.486v-81.509Z" opacity=".5"/><path fill="#7A8A8B" d="M1445.32 580.249a619.813 619.813 0 0 1-4.87-11.29c-4.14-9.903-7.93-20.08-11.52-30.051 5.65 29.263 11.09 58.594 16.39 87.985v-46.644Z" opacity=".5"/><path fill="#7A8A8B" d="M1249.11 79.523c-3.51 8.807-8.45 16.79-11.62 25.931a304.046 304.046 0 0 0-3.24 9.791c-1.52 21.956-1.15 44.185 1.51 65.935 2.05 16.901 5.87 34.051 10.46 51.612-.44-51.115 5.12-102.196 2.89-153.269Zm24.53 13.687a4.95 4.95 0 0 0-.69.616c-.99 5.32-1.69 10.751-2.15 16.293-.09 5.174.11 10.443 0 15.514-.03 1.105-.06 2.193-.1 3.264-.22 2.124-.44 4.214-.61 6.339.06 4.583.21 9.217.42 13.835.69 15.941 2.7 32.526 6.93 49.539.8 2.073 1.68 4.137 2.62 6.176 1.5-3.701 2.6-7.581 3.56-11.496 1.3-5.268 2.82-10.34 4.28-15.428.44-5.722 1.06-11.248 1.4-16.799-4.65-22.855-10.21-45.341-15.66-67.853Z" opacity=".4"/><path fill="#525C5C" d="M1358.1 176.831c-.35-.719-1.29-.334-1.56-.137-5.03 4.138-6.61 11.531-6.62 19.095-3.22 13.166-6.45 26.598-7.26 41.426-.21 4.001.26 8.078 2.57 12.216 2.26 4.078 6.02 7.932 9.4 11.41 7.28 7.513 14.46 16.568 23.67 22.204 1.2.737 2.23-1.225 2.18-2.004-.6-7.898-4.23-16.011-7.08-23.84-3.44-9.423-6.09-18.872-8.31-28.124-2.32-9.671-3.36-18.82-4.1-28.072-.36-4.368-.65-8.729-.87-13.063-.2-3.581-.28-7.461-2.02-11.111Z" opacity=".4"/><path fill="#748384" d="M276.375 828.903c.394-79.641 9.575-158.931 21.361-236.679a1139.23 1139.23 0 0 0 15.187-13.569c1.029-48.134 1.584-96.705 5.572-144.574 8.232-15.171 12.228-22.692 20.002-37.495 2.67-.565 4.012-.839 6.657-1.439 8.876-34.968 17.438-71.812 31.684-103.413 0 0 .732-2.775 3.273-.951 2.532 1.756 26.064 20.979 37.006 44.391 2.718 25.862 4.157 39.131 7.188 66.603 0 0 11.183 9.218 13.57 14.375 13.226 28.243 22.254 70.937 28.188 107.413 0 0 10.065-16.165 11.054-15.342 12.59 10.408 20.967 58.036 28.332 87.873 0 0 19.359 13.972 21.683 18.606 32.6 65.001 38.357 205.044 55.176 305.313-103.647-20.457-205.317-51.287-305.933-91.112Z"/><path fill="#677475" d="M371.444 624.382a9925.407 9925.407 0 0 1-9.02-54.207c-14.777-16.902-21.965-24.663-35.938-40.425-5.241 18.872-7.943 28.509-13.571 48.905a1152.56 1152.56 0 0 1-15.186 13.57c-11.787 77.748-20.968 157.037-21.362 236.679 48.206 19.06 96.613 36.244 145.526 51.518-13.137-83.188-26.024-166.444-38.414-249.846-4.823-2.476-7.227-3.701-12.035-6.194Z"/><path fill="#5D6869" d="M448.601 583.496a3145.6 3145.6 0 0 1-12.872 7.778c-1.302 97.288-2.983 194.567-4.96 291.838 50.247 14.622 100.68 26.924 151.547 36.895-16.819-100.269-22.656-240.44-55.176-305.313-2.324-4.634-21.683-18.606-21.683-18.606-7.364-29.828-15.87-77.585-28.332-87.873-1.005-.823-11.054 15.342-11.054 15.342a2288.054 2288.054 0 0 1-15.71 16.627c-.667 16.67-1.029 25.322-1.76 43.312Z"/><path fill="#677475" d="M387.542 446.213a2004.167 2004.167 0 0 1-21.779 23.738 259319.6 259319.6 0 0 1-2.798 103.601c3.272 19.84 4.96 29.999 8.474 50.833 4.807 2.492 7.203 3.717 12.035 6.193 12.389 83.402 25.285 166.658 38.413 249.846 3.53 1.088 5.323 1.619 8.868 2.689 1.978-97.27 3.658-194.549 4.961-291.837 5.169-3.11 7.75-4.669 12.871-7.779.555-13.483.812-20.19 1.343-32.809-7.357-24.876-10.87-36.946-17.615-60.435-15.002-14.52-29.94-29.177-44.773-44.04Z"/><path fill="#728182" d="M466.068 523.565c-5.933-36.476-14.978-79.17-28.187-107.413-2.396-5.157-13.571-14.375-13.571-14.375-3.031-27.472-4.47-40.741-7.187-66.603-10.934-23.403-34.466-42.635-37.007-44.391-2.54-1.824-3.272.951-3.272.951-14.246 31.601-22.817 68.445-31.684 103.413-2.645.6-3.988.865-6.657 1.439-7.783 14.811-11.77 22.324-20.003 37.495-3.987 47.869-4.542 96.44-5.571 144.574 5.619-20.396 8.321-30.034 13.571-48.905 13.965 15.762 21.16 23.523 35.937 40.424.217 1.337.329 2.022.547 3.384l2.797-103.601c8.884-9.552 13.234-14.306 21.78-23.738 14.833 14.854 29.771 29.511 44.773 44.04 6.753 23.489 10.258 35.55 17.614 60.435.161-4.214.258-6.322.419-10.493 6.343-6.682 9.478-9.997 15.701-16.636Z"/><path fill="#849697" d="M382.913 458.318a1911.605 1911.605 0 0 1-13.699 15.008l-1.592 74.502c7.389 21.955 11.231 33.999 19.247 58.037 4.711 25.63 9.503 51.243 14.343 76.814-.169-55.433-.33-110.857-.531-166.307-7.42-23.908-10.958-35.49-17.768-58.054Z"/><path fill="#748384" d="M429.655 499.326c-6.986 19.557-10.596 29.528-18.113 49.959 2.364 24.208 4.687 48.417 7.067 72.617 3.722-40.862 7.42-81.723 11.046-122.576Z"/><path fill="#707E7F" d="M474.016 517.706c-7.429 9.902-11.199 14.905-18.877 24.962 2.613 4.866 3.923 7.316 6.6 12.233a4514.961 4514.961 0 0 0 12.277-37.195Zm7.416 45.039a10521.582 10521.582 0 0 1-2.998 31.208c3.666 33.982 7.308 67.965 10.958 101.939a14686.81 14686.81 0 0 0 8.658-85.843 8365.86 8365.86 0 0 1-16.618-47.304Zm-28.477-6.65c-.08 1.105-1.182 38.06-1.182 38.06-4.944.386-7.437.583-12.349.951-.788 30.016-1.632 60.033-2.468 90.049a11085.12 11085.12 0 0 0 22.423-80.54c-2.629-19.917-3.964-30.154-6.424-48.52Z"/><path fill="#849697" d="M339.036 398.868c-6.955 14.134-10.524 21.279-17.864 35.824-1.094 35.602-2.187 71.195-3.273 106.797 6.271-36.176 12.462-72.36 18.516-108.587a5478.886 5478.886 0 0 0 7.485-34.18c-1.946.06-2.911.095-4.864.146Zm38.459-102.063c-12.542 43.765-26.723 87.967-34.755 133.814-.33 31.91-.651 63.811-.957 95.721a7654.412 7654.412 0 0 0 17.832-68.128c8.458-13.253 12.59-19.78 20.598-32.724a24578.8 24578.8 0 0 0 5.193-91.266 6386.558 6386.558 0 0 1-7.911-37.417Zm32.729 36.88c.089-.873-18.893 2.022-18.893 2.022 1.327 32.338 2.677 64.736 4.108 97.057a10607.86 10607.86 0 0 0 14.785-99.079Z"/><path fill="#566161" d="M450.365 540.19c6.351-6.673 9.495-9.989 15.709-16.628-5.933-36.475-14.978-79.17-28.187-107.413-2.395-5.157-13.571-14.374-13.571-14.374a22693.72 22693.72 0 0 0 9.302 92.945c6.263 21.801 9.543 32.963 16.329 55.963.153-4.214.257-6.33.418-10.493Z"/><path fill="#535D5E" d="M555.721 765.268c-8.835-49.839-12.63-118.309-28.589-150.562-2.283-4.634-21.683-18.606-21.683-18.606 9.519 50.799 19.199 101.528 28.822 152.25 0 0 10.693 8.48 21.45 16.918Z"/><path fill="#728182" d="M416.628 847.107c-11.328-72.112-22.43-144.257-33.147-216.531-4.832-2.476-7.228-3.701-12.036-6.194.716 57.54 1.447 115.08 2.227 172.603 14.239 16.816 28.581 33.512 42.956 50.122Z"/><path fill="#92A2A2" d="M309.926 586.554c-4.148 3.478-6.214 5.217-10.419 8.703-7.437 51.964-15.171 104.758-17.527 157.707 8.764-24.612 13.001-36.639 21.193-60.23 1.745-35.439 3.755-70.895 6.753-106.18Zm15.72-48.294c-4.188 17.552-6.343 26.736-10.813 45.659-1.841 35.901-3.642 71.811-5.459 107.73 14.069 16.901 21.281 25.485 36.058 42.814-6.874-65.352-13.282-130.79-19.786-196.203Z" opacity=".5"/><path fill="#7D8E8E" d="M354.194 241.158c-.072-.051-.129-.12-.201-.154-11.746-8.13-23.765-16.413-35.616-23.695-5.692-3.512-11.319-7.178-16.682-11.599-24.674.54-49.05 2.759-73.643 5.234-15.058 20.603-28.742 42.532-42.297 64.985-18.861 62.508-37.456 125.368-54.983 188.356-18.338 65.918-35.897 133.01-51.51 200.135-8.643 37.161-16.377 75.127-24.16 112.819-.883 4.352-1.792 8.78-2.708 13.201 104.636 25.365 209.312 43.414 315.483 49.941-1.246-133.651-3.441-267.363-6.809-400.861-1.68-66.141-3.031-132.341-6.874-198.362Z"/><path fill="#809293" d="M221.498 282.06c.072-.523.144-1.037.201-1.611-.137.771-.258 1.474-.394 2.245.064-.215.136-.412.193-.634Z" opacity=".7"/><path fill="#809293" d="M361.068 439.537c-1.664-66.158-3.031-132.358-6.874-198.379-.072-.051-.129-.12-.201-.154-11.746-8.13-23.765-16.413-35.616-23.695-5.692-3.512-11.319-7.178-16.682-11.599-24.674.54-49.05 2.759-73.643 5.234-15.058 20.603-28.742 42.532-42.297 64.985-18.861 62.508-37.456 125.368-54.983 188.356-18.338 65.918-35.897 133.01-51.51 200.135-8.643 37.161-16.377 75.127-24.16 112.819-.883 4.352-1.792 8.78-2.708 13.201 104.636 25.365 209.312 43.414 315.483 49.941-1.246-133.634-3.441-267.346-6.809-400.844ZM237.096 321.33c-6.568 30-17.55 55.647-31.386 81.115-.137.283-.459.3-.563.068-3.465-6.159-7.453-12.147-9.205-19.745-1.962-8.583.056-18.255 1.921-27.309.33-1.577.651-3.144 1.005-4.703-5.363 11.847-10.765 23.891-16.586 36.004-14.407 29.982-30.036 59.562-42.763 90.872-.225.548-.876.402-.707-.215 8.964-32.757 17.607-66.337 26.08-99.6a5265.141 5265.141 0 0 0 12.004-48.434c3.344-13.852 5.925-28.029 10.379-41.145 4.598-13.449 11.874-24.311 19.086-35.019 4.952-7.358 9.969-14.485 14.954-21.467 2.637-4.866 5.555-9.466 8.763-13.5.153-.197.442-.189.474.068 1.174 5.842-.498 12.216-1.527 18.503-1.263 7.693-2.525 15.48-3.811 23.292-.306 1.808-.603 3.649-.917 5.457-.562 4.437-1.19 8.849-1.776 13.338 4.486-13.415 9.752-26.196 16.561-37.375.153-.214.475-.317.523 0 .37 1.91.78 3.863 1.021 5.842 3.264 24.2 1.431 51.27-3.53 73.953Z" opacity=".7"/><path fill="#809293" d="M361.068 439.537c-1.664-66.158-3.031-132.358-6.874-198.379-.072-.051-.128-.12-.201-.154-11.745-8.13-23.765-16.413-35.615-23.695-5.692-3.512-11.32-7.178-16.682-11.599-24.674.54-49.05 2.759-73.644 5.234-.024.035-.024.052-.056.086 1.375 1.893 3.039 3.452 4.639 4.986 2.452 2.355 4.8 4.951 6.568 8.386 4.028 7.744 5.306 17.698 6.947 27.438 2.009 11.847 3.971 23.943 4.646 36.99.29 5.902.378 11.83-.152 17.989-.483 5.457-1.094 11.042-.764 16.413 3.039-33.914 2.822-66.535 2.886-100.123 0-.437.394-.54.563-.317 5.724 7.076 8.723 17.749 12.148 27.72 3.77 10.974 8.015 21.647 11.947 33.195 1.23 3.649 2.572 8.129.86 12.55-1.68 4.446-4.848 7.461-7.718 10.271-3.827 3.76-7.501 7.949-11.247 12.044-3.924 4.3-7.912 8.669-11.69 13.449-8.289 10.554-14.906 23.438-21.635 36.527-2.983 5.791-6.038 11.376-8.49 17.715-2.05 5.285-3.955 10.905-6.657 15.848-1.865 3.418-4.727 7.358-7.766 6.227-1.97-.702-3.682-2.295-5.555-3.366-1.793-1.019-3.618-1.91-5.475-2.793-1.254-.582-2.533-1.19-3.835-1.79-10.725 15.342-21.973 31.053-31.797 48.991-6.199 11.273-11.376 23.24-16.328 35.85-4.688 11.993-9.359 24.26-15.099 36.056-.289.582-.892.436-.772-.232 4.326-23.454 11.513-46.412 16.562-69.447 3.803-17.381 7.019-34.951 10.58-51.766a4590.837 4590.837 0 0 0 6.126-29.212c-9.052 31.156-18.049 62.44-26.732 93.665-18.338 65.918-35.897 133.009-51.51 200.135-8.642 37.161-16.376 75.127-24.159 112.819a3444.67 3444.67 0 0 1-2.71 13.2c104.637 25.365 209.313 43.415 315.485 49.942-1.23-133.643-3.425-267.355-6.794-400.853Zm-57.017-147.735c-.394 3.564-.932 7.658-2.83 10.511-.128.18-.378.197-.466 0-10.299-22.324-19.633-46.729-30.655-69.113-4.197-5.534-8.764-10.742-11.561-17.732-.073-.232.056-.617.233-.669 5.29-1.456 10.572-1.55 15.733-1.019 4.044.403 8.048 1.139 11.979 2.261 3.281.934 6.738 1.842 9.728 3.812 2.115 1.371 3.948 3.418 4.977 6.459 1.431 4.232 1.616 9.184 2.026 13.955.611 6.964 1.254 13.955 1.487 21.099.169 5.123-.088 10.339-.088 15.548.008 4.797-.016 9.868-.563 14.888Zm40.279 24.645c-6.03-5.585-11.183-13.303-16.425-19.976-2.476-3.161-5.065-6.177-7.059-9.869-1.704-3.126-2.886-6.741-3.899-10.356-2.179-7.813-3.562-16.097-4.39-24.363a144.06 144.06 0 0 1-.474-5.268 205.108 205.108 0 0 1-2.155-24.063c-.016-.351.338-.548.499-.403 10.347 9.483 19.431 23.729 25.316 40.202 5.524 15.377 9.736 34.283 9.093 53.66-.008.385-.297.608-.506.436Z" opacity=".7"/><path fill="#7A8A8B" d="M376.639 366.388c-21.787-24.56-44.001-45.625-69.848-61.369-14.6 7.23-29.289 15.659-44.219 24.825-14.262 18.435-27.391 38.514-39.474 59.767-18.29 61.875-31.877 125.617-45.143 189.744-10.685 51.63-20.573 103.919-28.283 156.285-3.642 24.611-6.818 49.727-10.154 74.604 86.506 17.604 173.214 28.106 260.621 31.541-3.176-102.916-7.34-205.78-12.735-308.457-2.926-55.758-5.845-111.422-10.765-166.94Z"/><path fill="#7A8A8B" d="M387.412 533.328c-2.926-55.766-5.853-111.43-10.773-166.94-21.787-24.56-44.001-45.625-69.848-61.369-14.6 7.23-29.289 15.659-44.219 24.825-14.262 18.435-27.391 38.514-39.474 59.767-18.29 61.875-31.877 125.617-45.143 189.744-10.685 51.63-20.573 103.919-28.283 156.285-3.642 24.611-6.818 49.727-10.154 74.604 86.506 17.604 173.214 28.106 260.621 31.541-3.168-102.916-7.34-205.772-12.727-308.457Zm-111.317-79.315c-1.736 8.669-3.931 17.312-6.126 26.05-2.123 8.498-4.165 17.081-5.652 26.033-1.222 7.247-2.508 14.708-5.194 21.433-.193.505-.635.248-.691-.188-1.142-7.616-.547-15.608-.531-23.327.016-6.176-.86-11.847-2.098-17.329-5.282-19.489-11.899-37.075-18.515-53.874-2.211-5.637-5.009-10.708-6.987-16.413-1.527-4.42-2.822-9.654-1.6-14.974.772-3.332 2.268-6.108 3.731-8.969 1.712-3.366 3.481-6.622 5.226-9.851 3.296-6.074 6.672-12.027 9.736-18.118.53-1.088 1.101-2.193 1.624-3.281 4.486-9.089 8.514-20.448 15.275-26.17 2.709-2.321 6.456-4.069 9.398-3.632 2.75.385 3.353 3.127 3.57 6.776.305 4.668.048 9.448.305 14.134.443 8.284.917 16.662 1.263 25.168.699 16.293 1.616 33.229.49 50.679-.49 8.583-1.519 17.218-3.224 25.853Zm43.776-25.802c-1.174 6.339-3.505 12.079-6.094 17.621a2045.45 2045.45 0 0 1-9.889 20.885c-7.316 15.222-15.09 30.504-22.503 46.763-.185.386-.683.351-.699-.18-.177-7.178.78-14.391 1.937-21.381a2770.512 2770.512 0 0 0 3.369-20.577c1.624-10.108 3.754-19.873 5.805-29.528.176-19.959.675-39.371 1.181-58.225.587-22.067-.353-44.305 3.827-64.847.057-.317.362-.454.515-.3 2.484 2.647 4.124 6.776 5.443 10.845 1.6 4.951 2.87 10.202 4.277 15.445 1.584 5.971 3.36 11.864 4.751 18.118 1.592 7.041 2.959 14.306 4.189 21.75a1102.711 1102.711 0 0 1 3.441 23.557c.892 6.571 1.744 13.047.45 20.054Z" opacity=".5"/><path fill="#6E7C7C" d="M387.413 533.329c-2.926-55.767-5.853-111.431-10.773-166.94-19.464-23.995-41.677-43.5-65.362-58.543 4.703 6.074 9.221 12.644 13.78 19.274 3.61 5.252 7.26 10.537 11.006 15.814 3.425 4.788 6.906 9.62 9.841 15.308 2.379 4.651 4.486 9.808 5.619 15.642 1.48 7.727 2.284 16.045 3.232 24.209 1.994 16.952 3.586 34.462 5.073 52.503 1.423 17.466 2.919 35.319 5.009 53.625 2.018 17.621 4.132 35.841 3.875 54.841-.04.634-.547.84-.756.3-2.387-6.759-3.746-14.34-4.992-21.63-1.367-7.984-2.999-15.676-4.639-23.292-3.771-17.466-7.815-34.248-11.264-50.866-3.497-16.782-6.89-33.144-10.636-48.837-2.782-11.659-4.165-24.483-8.16-34.848.498 21.981 4.269 43.783 6.697 66.775.603 5.808 1.157 11.693 1.503 17.638.289 5.105.659 10.305-.056 15.513-1.496 11.179-5.749 21.262-9.479 31.542-.129.385-.563.368-.683-.018-3.321-12.969-2.501-27.086-3.345-40.356-.249 1.654-.538 3.281-.788 4.918-.691 4.463-1.431 9.054-1.793 13.637-.233 2.878-.385 5.791-1.173 8.532-.668 2.373-2.05 3.812-3.602 4.772-2.211 1.37-4.462 2.458-6.697 3.949-5.242 3.512-10.564 7.007-15.854 10.708-5.692 3.966-11.457 7.812-17.253 11.744-4.503 3.033-9.15 5.902-13.563 9.517-1.753 1.439-4.285 4.069-6.432 4.403a111.362 111.362 0 0 1-4.631 2.947c-.177.103-.498.069-.547-.265-1.937-11.728.017-24.86.394-36.759.25-8.849.949-17.603 1.431-26.238-4.687-15.497-11.456-28.646-17.245-42.027-3.585-8.3-7.083-16.601-10.29-24.842-1.431-3.666-2.83-7.358-4.068-11.111a101.084 101.084 0 0 0-1.222-3.734c-16.466 58.345-29.192 118.155-41.622 178.239-10.684 51.63-20.573 103.918-28.283 156.284-3.642 24.612-6.818 49.728-10.154 74.605 86.506 17.603 173.214 28.106 260.621 31.541-3.16-102.933-7.332-205.789-12.719-308.474Z" opacity=".6"/><path fill="#768687" d="M243.594 562.574c1.375-25.682 2.83-51.347 4.06-77.029a888.177 888.177 0 0 0-24.673-65.318c-10.581-5.217-21.531-8.986-32.706-10.939-8.264 11.427-16.698 23.343-25.148 36.021-39.41 112.716-69.84 229.218-94.337 349.643 52.218 12.028 104.459 22.975 157.095 31.25 5.7-87.813 10.918-175.704 15.709-263.628Z"/><path fill="#7A8A8B" d="M243.594 562.574c1.375-25.682 2.83-51.347 4.06-77.029a888.177 888.177 0 0 0-24.673-65.318c-10.581-5.217-21.531-8.986-32.706-10.939-8.264 11.427-16.698 23.343-25.148 36.021-39.41 112.716-69.84 229.218-94.337 349.643 52.218 12.028 104.459 22.975 157.095 31.25 5.7-87.813 10.918-175.704 15.709-263.628Zm-104.563 81.585c-4.133 8.721-8.088 17.733-12.245 26.684-8.417 17.973-14.439 38.549-23.492 57.018-.337.668-.876.051-.812-.548 3.827-32.681 11.111-64.548 18.902-96.791 5.065-21.014 9.583-41.547 14.543-61.318 4.961-19.814 10.082-38.986 15.091-57.437 6.849-25.1 15.098-49.908 26.032-72.309 1.528-3.752 3.208-7.41 5.009-10.845 1.953-3.666 5.515-10.322 9.052-9.671 4.631.856 4.977 10.571 4.889 16.079-.218 10.811-2.155 22.084-4.229 33.314-2.372 12.85-4.72 25.948-7.686 39.268-4.02 18.17-8.747 36.707-14.206 55.664-5.387 18.769-11.167 37.598-19.231 55.836-3.682 8.378-7.63 16.687-11.617 25.056Zm32.198 17.801c-6.48 18.538-14.712 36.27-22.004 55.313-5.732 14.974-9.599 33.314-18.21 46.044-.362.565-.868.197-.804-.54 5.194-55.501 21.844-106.865 39.362-159.316 3.554-14.709 7.123-29.032 13.137-41.71.185-.42.611-.317.699.103.547 2.844 1.021 5.954 1.239 9.106 1.061 13.92-.185 29.228-2.332 44.219-2.251 15.762-5.764 31.473-11.087 46.781Z" opacity=".5"/><path fill="#7A8A8B" d="M211.858 430.866c-2.597 8.113-5.089 16.414-7.662 24.766-2.637 8.515-5.491 17.252-7.686 26.17-2.267 9.166-4.229 18.555-6.223 28.089-1.841 8.78-3.746 17.766-6.102 26.701-2.436 9.2-5.531 18.238-8.731 27.438-6.367 18.358-13.273 36.947-19.954 56.247-6.633 19.205-13.169 39.114-18.499 60.247-5.475 21.715-10.709 44.168-16.771 67.194-4.695 17.835-8.884 36.407-13.113 55.433 40.174 8.883 80.356 16.678 120.764 23.052 5.7-87.822 10.918-175.713 15.709-263.629 1.375-25.682 2.83-51.347 4.06-77.029a888.349 888.349 0 0 0-24.673-65.318 137.652 137.652 0 0 0-6.882-3.144c-1.255 4.6-2.782 9.2-4.237 13.783ZM171.225 661.96c-6.48 18.538-14.712 36.27-22.004 55.313-5.732 14.974-9.6 33.315-18.21 46.044-.362.566-.868.197-.804-.539 5.194-55.502 21.844-106.865 39.362-159.317 3.554-14.708 7.123-29.031 13.137-41.709.185-.42.611-.317.699.102.547 2.844 1.021 5.954 1.239 9.106 1.061 13.921-.185 29.229-2.332 44.22-2.251 15.762-5.764 31.472-11.087 46.78Zm43.977-211.28c2.308 10.76 4.446 22.016 5.692 33.88 1.166 11.342 1.93 23.977-.426 36.287-2.227 11.71-6.729 23.121-11.416 34.094-4.88 11.445-10.347 23.189-16.642 33.178-.249.368-.764.351-.748-.249.418-23.557 2.742-46.275 6.858-67.914 2.782-14.425 6.182-28.346 9.849-41.863 2.243-9.166 4.349-18.221 6.11-27.19.096-.522.611-.762.723-.223Z" opacity=".5"/><path fill="#6B7879" d="M111.572 634.228c6.238-20.885 11.609-41.358 16.883-61.249 6.866-25.948 13.466-52.066 19.721-78.305-21.619 67.34-40.496 135.742-57.178 205.712.474-1.456.892-2.93 1.35-4.369 6.545-21.133 13.21-41.632 19.224-61.789Z" opacity=".5"/><path fill="#7A8A8B" d="M199.945 472.979c-2.364 14.923-5.91 29.999-9.439 45.444-.37 1.559-.691 3.127-1.013 4.72.9-2.612 1.841-5.251 2.613-7.812 8.313-27.172 15.332-56.701 23.757-83.89.145-.523.667-.454.7.034.024.583.056 1.191.104 1.773 4.703 7.616 8.176 16.833 10.982 26.702.499 1.773.989 3.546 1.488 5.319 2.83 7.324 5.113 15.36 6.134 24.106.136.737.257 1.508.378 2.244.9 5.757 1.005 11.959-.145 18.17-1.238 6.844-3.473 13.432-5.781 19.942-6.166 17.33-12.823 35.105-19.383 53.608-6.552 18.435-12.421 37.598-18.017 57.72-5.507 19.874-11.071 40.639-18.676 60.281-.273.703-.973.489-.836-.351 4.55-31.019 10.829-62.526 16.473-93.51 1.399-7.675 2.693-15.359 4.012-22.975-2.428 10.588-5.049 21.279-8.016 31.978-1.929 7.007-4.365 13.801-6.962 20.525a226.073 226.073 0 0 1-7.083 24.945c-3.272 9.338-6.986 18.504-10.797 27.687a588.231 588.231 0 0 1-11.505 30.247 667.356 667.356 0 0 0-4.076 10.109c-3.136 9.688-6.223 19.779-10.757 28.26a988.737 988.737 0 0 0-8.498 24.226c-2.5 7.512-5.226 15.162-7.79 23.026a1513.377 1513.377 0 0 0 110.062 20.696c5.7-87.822 10.918-175.712 15.71-263.629 1.375-25.682 2.83-51.346 4.06-77.028a888.662 888.662 0 0 0-24.674-65.319c-7.195-3.529-14.528-6.373-21.996-8.48.554 7.641 1.077 15.376 1.294 23.352.306 12.318-.273 24.799-2.323 37.88Z" opacity=".5"/><path fill="#768687" d="M352.265 535.52c-13.354-8.164-26.579-15.625-39.676-22.718-11.714 4.849-23.508 11.111-35.399 17.869-23.033 13.081-45.07 29.092-65.957 47.886a1913.133 1913.133 0 0 0-6.351 26.068c-16.297 69.387-30.728 139.519-44.62 209.875 69.06 13.02 138.169 21.63 207.833 25.913-2.501-101.94-7.284-203.57-15.83-304.893Z"/><path fill="#809293" d="M352.265 535.52c-13.354-8.164-26.579-15.625-39.676-22.718-11.714 4.849-23.508 11.111-35.399 17.869-23.033 13.081-45.07 29.092-65.957 47.886a1913.133 1913.133 0 0 0-6.351 26.068c-16.297 69.387-30.728 139.519-44.62 209.875 69.06 13.02 138.169 21.63 207.833 25.913-2.501-101.94-7.284-203.57-15.83-304.893ZM200.661 782.17c-3.16 3.615-7.179 6.16-11.055 7.145-2.902.702-5.684.282-6.383-4.789-.394-2.775-.193-5.902-.032-8.738.273-5.491.522-10.939 1.061-16.344 1.174-12.301 3.079-24.243 5.049-36.004 3.931-23.626 7.975-46.447 12.019-68.548 3.168-17.364 6.199-34.334 8.723-50.996-.072-.137-.088-.299-.056-.505.201-1.088.426-2.21.619-3.281.498-3.332.965-6.622 1.391-9.885.056-.437.257-.6.466-.583.032-.017.056.017.105.017.152.034.241.197.257.454.024 0 .024.017.024.017-.04 9.989 3.144 23.558 4.711 35.705 3.755 28.611 4.044 56.649 2.814 85.098-1.109 24.911-5.25 54.773-19.713 71.237Zm97.513-254.094c-.836 3.966-1.873 8.044-2.983 11.993-4.727 17.269-11.046 34.65-16.521 53.051-5.717 19.326-11.794 39.097-17.366 59.733-5.644 20.833-10.05 42.9-15.717 65.018-2.726 10.623-5.781 21.331-8.305 32.355-1.753 7.762-2.943 16.919-6.85 22.924-.201.317-.659.154-.716-.3-1.809-11.076-.185-23.523.153-34.702.402-15.025.563-29.751.748-44.151.257-23.12-.129-45.239-.844-66.672-.346-10.656-.684-21.15-.821-31.472-.072-5.089-.731-12.096 1.665-16.645 2.275-4.249 5.957-6.253 8.924-8.797 5.724-4.952 11.4-9.937 17.044-14.743 8.578-7.247 17.124-13.655 25.815-19.189a.43.43 0 0 1 .169-.231c4.639-4.437 9.905-7.881 15.179-8.918.281-.111.546.258.426.746Z" opacity=".5"/><path fill="#809293" d="M292.36 683.906c-4.422 18.94-10.355 37.632-17.14 55.647-11.079 29.417-22.913 58.842-33.92 88.61a1808.778 1808.778 0 0 0 126.794 12.25c-2.509-101.94-7.284-203.57-15.83-304.893-13.354-8.164-26.58-15.625-39.676-22.718a250.782 250.782 0 0 0-8.98 3.966 514.314 514.314 0 0 1-3.755 11.796c-2.283 6.827-4.759 13.603-7.244 20.448-4.293 14.203-9.422 28.894-13.94 44.116-5.733 19.326-11.795 39.097-17.366 59.734-5.644 20.833-10.05 42.9-15.718 65.018-2.725 10.622-5.78 21.33-8.305 32.355-1.294 5.722-2.299 12.079-4.293 17.518 7.172-15.591 10.187-34.282 15.26-50.884 6.536-21.364 13.546-41.675 20.428-61.489 6.697-19.24 12.952-38.163 20.011-55.912 6.898-17.399 13.901-34.951 17.768-52.855.112-.548.747-.565.763.035.885 26.924-1.728 54.764-5.394 81.534-2.476 18.152-5.178 37.238-9.463 55.724Zm10.484-6.922c2.637-16.987 5.37-33.563 7.919-49.873 2.066-13.235 3.851-26.333 5.853-39.114 1.793-11.599 3.811-23.557 7.589-33.297.177-.471.659-.266.732.197 4.14 26.084 8.168 52.297 11.247 78.622 2.404 20.208 4.245 41.495 4.486 63.459.177 16.293-2.138 32.107-7.846 46.198-11.384 28.089-30.519 48.906-46.18 72.197-.322.489-.812 0-.788-.651 2.09-45.881 8.924-91.882 16.988-137.738Z" opacity=".5"/><path fill="#7A8A8B" d="M221.57 239.892c-4.896 8.035-10.66 15.257-15.573 23.592a459.776 459.776 0 0 0-5.153 8.934c-7.236 19.54-13.957 39.791-19.448 61.207-3.988 15.556-6.986 31.49-9.696 47.851 16.996-47.106 35.68-92.67 49.87-141.584Zm13.789 13.393a6.662 6.662 0 0 0-.675.566c-2.211 4.917-4.277 9.954-6.255 15.128-1.592 4.831-3.055 9.74-4.687 14.554-.346 1.036-.716 2.039-1.077 3.058-.804 1.987-1.608 4.001-2.42 5.971a1723.111 1723.111 0 0 0-4.06 13.132c-4.631 15.094-8.635 30.685-11.401 46.729a91.533 91.533 0 0 0-.249 5.92c2.259-3.298 4.334-6.828 6.311-10.391 2.645-4.772 5.395-9.389 8.088-13.989 2.179-5.303 4.462-10.511 6.52-15.796 4.446-22.187 7.324-43.869 9.905-64.882Z" opacity=".4"/><path fill="#525C5C" d="M267.778 337.885c.025-.703-.763-.42-1.021-.232-4.88 3.598-8.546 10.588-11.199 17.853-6.834 12.395-13.796 24.996-19.6 39.053-1.6 3.795-2.734 7.71-2.678 11.968.057 4.129 1.15 8.283 2.131 12.027 2.122 8.061 3.545 17.732 7.461 24.482.522.9 1.921-.891 2.162-1.653 2.541-7.761 3.144-16.148 4.133-24.123 1.19-9.534 2.894-19.06 4.767-28.209 1.93-9.637 4.527-18.554 7.332-27.575 1.311-4.266 2.67-8.498 4.02-12.712 1.126-3.487 2.46-7.247 2.492-10.879Z" opacity=".4"/><path fill="#748384" d="M104.415 245.726a11407.727 11407.727 0 0 0-13.901-46.353c-3.433-.745-5.153-1.088-8.57-1.816-.105-42.506-.684-92.525-15.034-131.099 0 0-.636-3.718-4.31-1.113-21.4 15.342-42.755 35.858-60.33 59.767-8.988 27.643-19.52 54.302-31.21 79.941 0 0-18.547 10.16-24.303 16.199-11.489 12.044-23.026 25.784-34.466 40.339v477.016c29.401 3.444 58.947 5.722 88.67 6.879 29.987-97.931 52.064-200.958 68.417-304.688-6.504-7.812-9.672-11.658-15.95-19.24 18.844-57.154 38.477-115.302 50.987-175.832Z"/><path fill="#677475" d="M53.42 421.555c.506-25.031.86-37.041 1.527-60.487-22.592 14.503-45.416 28.261-68.514 41.093-12.02 19.326-24.24 38.377-36.629 57.257a1120.556 1120.556 0 0 1-20.211 3.298c-5.749 8.918-11.53 17.784-17.31 26.65v249.478a1214.235 1214.235 0 0 0 88.67 6.639C30.94 647.552 53.017 544.525 69.37 440.795c-6.504-7.812-9.672-11.667-15.95-19.24Z"/><path fill="#677475" d="M4.795 256.785c-26.989 16.396-54.21 32.072-81.827 46.361a1006.882 1006.882 0 0 1-10.685 12.901v173.314c5.789-8.867 11.57-17.733 17.31-26.65 8.12-1.251 12.18-1.928 20.211-3.298 14.198-21.63 21.096-32.39 34.394-53.66 14.117-39.833 28.13-79.684 41.155-120.22-8.337-11.967-12.478-17.586-20.558-28.748Z"/><path fill="#728182" d="M104.415 245.726a11407.727 11407.727 0 0 0-13.901-46.353c-3.433-.745-5.153-1.088-8.57-1.816-.105-42.506-.684-92.525-15.034-131.099 0 0-.636-3.718-4.31-1.113-21.4 15.342-42.755 35.858-60.33 59.767-8.988 27.643-19.52 54.302-31.21 79.941 0 0-18.547 10.16-24.303 16.199-11.489 12.044-23.026 25.784-34.466 40.339v54.456c3.586-4.266 7.163-8.566 10.685-12.901 27.608-14.289 54.83-29.965 81.82-46.361 8.08 11.162 12.22 16.781 20.557 28.749-13.025 40.535-27.038 80.395-41.155 120.228.884-1.456 1.326-2.159 2.227-3.598 23.098-12.832 45.93-26.59 68.513-41.092-.667 23.437-1.02 35.456-1.527 60.486 18.861-57.154 38.494-115.302 51.004-175.832Z"/><path fill="#849697" d="M6.323 270.789c-16.264 22.315-33.01 43.937-50.288 64.736-14.335 34.514-28.983 68.779-43.752 102.984v29.88a2427.725 2427.725 0 0 0 23.331-32.912 1582.569 1582.569 0 0 0 53.287-59.511c10.387-28.662 20.557-57.522 30.261-86.665-5.185-7.573-7.726-11.385-12.839-18.512Zm82.71-68.643c4.583 17.399 6.85 26.196 11.521 44.168C88.422 290.148 75.47 333.4 62.036 376.497c6.392-44.254 12.984-88.473 18.339-133.01.972-16.781 1.415-25.082 2.082-41.572 2.62.077 3.94.129 6.576.231ZM65.071 73.328c8.233 53.531 13.828 112.742 7.51 167.146-11.642 38.686-24.385 76.712-37.675 114.378 1.303-27.592 2.613-55.167 3.811-82.734-6.407-15.916-9.535-23.66-15.67-38.993 8.965-36.579 16.587-72.909 22.761-110.6 8.418-19.472 12.277-29.272 19.263-49.197ZM12.067 122.95c.097-1.105 25.253 1.705 25.253 1.705-10.17 40.279-23.291 79.042-38.14 116.451 5.724-39.371 10.146-78.177 12.887-118.156Z"/><path fill="#92A2A2" d="M54.4 431.441c4.453 4.969 6.697 7.479 11.223 12.567-11.545 67.357-23.355 135.708-41.38 200.435-1.865-28.089-3.682-56.187-5.065-84.327 12.598-42.412 24.529-85.295 35.221-128.675Zm-1.897-60.049c-1.6 21.733-2.411 32.861-3.987 55.913-12.606 43.045-25.028 86.228-37.85 129.163-23.758 13.218-47.772 25.279-71.964 36.955 38.952-73.02 77.631-146.305 113.801-222.031Z" opacity=".5"/><path fill="#708080" d="M272.072 439.575c-.587-58.345-1.93-116.947-6.255-174.787-1.849-24.577-4.197-49.454-7.541-73.791-1.841-13.466-3.956-26.684-5.266-40.287-13.539-12.216-27.44-23.292-40.536-34.342-17.495-14.76-36.074-29.143-56.463-35.722-12.341 17.15-24.143 35.036-35.631 53.308C60.219 339.289-29.713 523.971-87.719 731.028v29.014c118.36 41.461 238.754 69.867 360.353 85.543.266-135.314.796-270.97-.562-406.01Z"/><path fill="#809293" d="M272.072 439.575c-.587-58.345-1.93-116.947-6.255-174.787-1.849-24.577-4.197-49.454-7.541-73.791-1.841-13.466-3.956-26.684-5.266-40.287-13.539-12.216-27.44-23.292-40.536-34.342-17.495-14.76-36.074-29.143-56.463-35.722-12.341 17.15-24.143 35.036-35.631 53.308C60.219 339.289-29.713 523.971-87.719 731.028v29.014c118.36 41.461 238.754 69.867 360.353 85.543.266-135.314.796-270.97-.562-406.01Zm-117.516-39.302c-.056.471-.112.917-.145 1.336-.297 2.322-2.46 5.037-3.022 2.545-7.485-33.778-18.307-66.175-27.713-98.882-4.47-15.608-8.353-31.669-13.346-45.495-3.007-8.378-7.163-17.973-6.038-29.811 2.3-24.269 8.305-48.477 16.2-70.57 4.824-13.483 11.569-25.433 18.596-35.935 3.328-7.051 7.139-13.355 10.902-19.523.144-.566.273-1.157.394-1.739.305-1.516 1.045-1.893 1.567-1.516a222.515 222.515 0 0 0 4.414-7.633c.547-.968 1.311-.84 1.656-.077 40.809 91.334 21.41 210.912-1.463 304.619-.338 1.362-1.27 2.578-2.002 2.681Zm87.391 1.79c-5.386 54.576-14.56 110.857-21.426 165.973-7.645 61.558-15.323 123.706-29.312 182.591-.732 3.178-3.152 3.65-3.481.403-6.472-60.316-7.276-122.507-6.898-183.825.321-51.963-1.544-105.828 2.492-156.515 5.178-65.439 17.526-129.6 36.243-192.143 5.66-20.645 12.035-40.133 19.826-57.883.482-1.139 1.567-1.696 1.945-.514 3.811 11.625 3.626 26.667 4.334 41.067.988 19.925 1.784 40.433 1.865 61.429.193 46.61-1.11 93.879-5.588 139.417Z" opacity=".7"/><path fill="#809293" d="M193.739 142.347c2.653 17.381 1.415 38.326.289 57.771-2.999 52.101-8.948 105.263-12.196 157.184-2.179 34.831-3.336 70.492-4.382 105.828.917 17.219 2.107 34.805 3.329 53.034-.056-35.439-.145-71.271 2.532-105.485 5.065-65.319 17.527-129.6 36.243-192.143a532.304 532.304 0 0 1 7.147-23.986c.82-3.255 1.64-6.519 2.444-9.774 3.063-12.301 4.543-23.917 10.597-32.664 2.01-2.938 4.277-5.354 6.64-7.255-11.36-9.954-22.937-19.257-33.919-28.492-17.028-14.348-35.069-28.329-54.79-35.216 8.506 10.288 17.743 18.846 25.212 31.541 4.695 8.001 9.005 17.484 10.854 29.657Z" opacity=".5"/><path fill="#728182" d="M261.465 293.506c1.873 63.125 1.23 127.193-4.382 189.735-7.638 85.158-22.037 171.361-33.493 256.502-4.333 32.261-8.53 64.702-12.687 97.074a2198.23 2198.23 0 0 0 61.737 8.763c.265-135.322.796-270.979-.563-406.01-.587-58.345-1.93-116.947-6.255-174.787-1.849-24.577-4.197-49.454-7.541-73.791-1.616-11.753-3.409-23.36-4.719-35.147 3.577 45.855 6.544 91.951 7.903 137.661Z" opacity=".5"/><path fill="#657272" d="M127.528 209.473c-2.219-1.585-4.438-3.212-6.561-5.011-26.667-.617-53.246 2.493-79.85 4.6a2358.756 2358.756 0 0 0-55.61 60.084c-23.958 44.656-48.583 88.67-73.225 132.547v357.679c59.783 21.398 120.21 39.336 181.399 53.753 6.713-47.748 13.482-95.48 20.396-143.152 4.052-44.784 8.394-89.792 12.116-134.362 8.868-106.146 18.869-219.967 1.335-326.138Z"/><path fill="#809293" d="M127.528 209.473c-2.219-1.585-4.438-3.212-6.561-5.011-26.667-.617-53.246 2.493-79.85 4.6a2358.756 2358.756 0 0 0-55.61 60.084c-23.958 44.656-48.583 88.67-73.225 132.547v16.764c15.46-29.562 30.96-59.107 46.268-88.824.08-.188.13-.368.218-.582 6.093-12.182 11.826-25.211 18.708-36.879.563-1.122 1.101-2.278 1.672-3.392.418-.839.884-1.302 1.335-1.456 2.468-3.863 5.145-7.667 8.007-10.956 15.597-18.041 31.998-35.739 49.026-51.535.989-.9 1.592.171 1.487 1.336-1.117 14.854-7.123 30.864-12.365 46.626-6.657 19.926-14.174 41.342-22.221 62.458-16.2 42.394-33.116 85.594-53.593 122.609-11.48 20.8-24.722 40.519-38.542 59.759v241.751c59.783 21.398 120.21 39.336 181.399 53.753 6.713-47.748 13.482-95.48 20.396-143.152 4.052-44.784 8.394-89.792 12.116-134.362 8.868-106.146 18.869-219.967 1.335-326.138Zm-20.043 5.046c-3.208 35.319-13.153 70.483-27.72 99.463-10.05 19.926-22.36 38.318-34.49 56.204-13.789 20.345-44.251 57.823-44.251 57.823-.523-.566 25.703-63.545 40.045-93.81 12.518-26.453 24.988-53.471 38.438-78.69 7.517-14.118 16.867-33.298 26.426-42.335.844-.814 1.664-.009 1.552 1.345Z" opacity=".5"/><path fill="#809293" d="M76.232 206.155c-6.046 12.113-10.942 26.23-15.782 38.848-9.173 23.926-17.245 49.026-26.097 73.063-14.43 39.319-29.795 78.553-45.584 117.204 5.418-9.406 10.773-18.709 15.822-27.823 5.362-9.672 10.724-19.223 15.99-28.68 6.673-15.223 13.644-30.068 20.485-44.571 12.518-26.555 24.988-53.471 38.438-78.69 7.075-13.269 15.806-31.036 24.722-40.605 1.142-1.67 2.291-3.323 3.481-4.831a82.626 82.626 0 0 1 4.904-5.722c-11.979.017-24.135.822-36.38 1.807Z" opacity=".5"/><path fill="#809293" d="M127.528 209.475c-.266-.189-.579-.429-.885-.643.169 19.643-3.835 42.086-7.999 63.545-2.927 15.094-5.845 31.875-11.433 47.663-5.507 15.557-13.2 27.755-22.133 40.168-23.797 33.109-48.72 65.369-74.359 95.566-27.495 32.389-55.859 65.001-81.602 99.969-1.407 1.91-3.578 1.156-2.854-1.422 5.893-20.465 15.002-39.465 22.704-57.626 8.836-20.816 16.722-42.652 24.24-64.316 8.497-24.465 16.658-49.556 22.864-75.504-3.963 10.271-8.08 20.68-12.43 31.139-5.49 16.97-11.496 34.788-18.868 51.681-15.09 34.548-33.333 66.877-52.483 97.973V759.51c59.823 21.365 120.241 39.217 181.399 53.625 6.713-47.748 13.482-95.48 20.396-143.152 4.044-44.793 8.386-89.8 12.108-134.371 8.868-106.145 18.869-219.966 1.335-326.137Z" opacity=".5"/><path fill="#768687" d="M164.687 427.336c-9.736-2.647-19.52-5.088-29.28-7.213-3.602-.771-7.26-1.559-10.886-2.244-40.239 19.745-81.659 34.633-121.994 54.053-30.462 46.995-60.659 94.333-90.245 142.278v145.294c84.835 29.828 170.553 52.52 257.454 69.987 7.019-133.438 10.773-269.574-5.049-402.155Z"/><path fill="#7A8A8B" d="M164.688 427.336c-9.736-2.647-19.52-5.088-29.28-7.213-3.602-.771-7.26-1.559-10.886-2.244-40.238 19.745-81.658 34.634-121.993 54.053-30.462 46.995-60.66 94.333-90.245 142.279v32.338c10.122-18.744 20.863-36.964 31.378-55.15 16.313-28.209 31.395-59.494 50.377-84.542 15.79-20.85 36.604-31.986 56.655-42.326 19.078-9.817 38.446-21.03 57.918-30.667 8.795-5.705 17.229-8.447 24.119-3.23.514.403.9 1.542.555 2.741-11.867 41.042-26.314 80.524-42.578 118.944-12.55 29.545-28.3 58.457-50.007 75.812-20.308 16.233-43.535 25.665-65.13 38.18-16.384 9.534-33.219 18.675-50.11 26.924-4.334 2.107-8.764 3.949-13.193 5.954v60.298c84.834 29.828 170.553 52.52 257.453 69.987 7.035-133.421 10.79-269.557-5.033-402.138Z" opacity=".5"/><path fill="#7A8A8B" d="M164.775 428.377c-19.198 49.136-37.183 99.703-55.988 148.608-10.684 27.773-22.358 55.784-32.721 83.702-4.8 12.884-12.277 39.602-20.87 46.781-6.682 5.568-14.657 4.883-21.467 7.007-10.017 3.127-20.18 5.937-30.293 8.481-19.408 4.943-38.944 9.645-58.545 13.295-10.83 2.021-21.699 3.615-32.609 4.668v18.803c84.875 29.803 170.602 52.315 257.454 69.773 6.994-133.086 10.717-268.837-4.961-401.118Zm-16.931 96.774c-1.375 12.344-2.806 25.013-4.374 37.863-3.424 27.977-7.83 55.852-14.045 82.365-9.736 41.658-29.353 82.382-57.274 106.24-1.198.985-2.63-.437-2.34-2.93 4.414-36.527 16.071-71.477 26.507-105.589 5.925-19.428 11.89-38.531 18.049-56.752 10.371-34.385 20.533-69.078 34.707-100.74 1.093-2.441 2.725-1.259 2.742.986.04 12.275-2.509 25.287-3.972 38.557Z" opacity=".5"/><path fill="#6B7879" d="M169.732 829.492c6.569-125.18 9.889-251.918-2.307-376.687.378 47.971-3.658 95.772-8.996 142.664-8.539 75.203-20.244 150.347-35.319 224.266 18.636 4.198 27.97 6.142 46.622 9.757Z" opacity=".5"/><path fill="#639337" d="M1131.72 304.087c-79.35 50.259-158.446 103.636-246.833 133.695-49.581 16.884-100.432 24.645-152.464 24.14-53.448-.506-106.582-7.564-159.451-15.497-55.176-8.301-110.352-16.044-165.247-26.538-55.843-10.657-111.494-22.573-167.482-32.492-56.599-10.006-112.684-17.047-170.151-15.026-41.195 1.457-82.125 5.885-122.95 11.625v408.425H1460.34V182.891c-85.69 17.398-169.85 42.583-249.95 80.206-26.73 12.533-52.82 26.504-78.67 40.99Z"/><path fill="#8AC240" d="M1131.72 304.087c-79.35 50.259-158.446 103.636-246.833 133.695-49.581 16.884-100.432 24.645-152.464 24.14-53.448-.506-106.582-7.564-159.451-15.497-55.176-8.301-110.352-16.044-165.247-26.538-55.843-10.657-111.494-22.573-167.482-32.492-56.599-10.006-112.684-17.047-170.151-15.026-41.195 1.457-82.125 5.885-122.95 11.625v408.425H1460.34V182.891c-85.69 17.398-169.85 42.583-249.95 80.206-26.73 12.533-52.82 26.504-78.67 40.99Z"/><path fill="#8AC240" d="M738.253 459.801c-17.832 4.549-36.082 7.264-53.786 12.267h35.431c1.367 0 1.431 1.876.298 2.39-20.381 8.832-42.932 13.586-65.644 15.222 39.651 7.778 80.01 10.922 120.482 11.762 1.407.034 1.455 1.893.305 2.39-10.266 4.566-20.742 9.149-31.644 11.213 53.753 4.215 107.595-1.67 160.295-13.5 50.119-11.231 97.6-32.964 148.11-42.309-26.93-.634-53.765 3.229-80.569 5.473-1.415.12-1.415-1.91-.322-2.424 7.083-3.075 13.853-6.844 20.815-10.185 1.512-.72 3.176-1.619 4.912-2.527-11.545 1.653-23.057 5.491-34.602 6.596-1.094.085-1.624-1.791-.547-2.313 25.132-11.548 50.533-22.624 75.123-35.516 24.38-12.73 46.72-27.789 69.05-44.083 44.17-32.192 88-65.455 136.72-89.389-9.21 1.91-18.2 4.831-27.56 6.022-1.15.137-1.53-1.773-.55-2.313 13.28-7.667 26.51-15.942 40.93-20.868-39.21 1.637-76.95 18.324-113.22 34.437-79.29 50.207-158.328 103.584-246.7 133.618-49.588 16.884-100.439 24.662-152.463 24.157-1.633-.069-3.24-.086-4.864-.12Z" opacity=".4"/><path fill="#78AE43" d="M1210.39 263.097c-26.73 12.533-52.81 26.504-78.67 40.99-1.04.651-2.11 1.302-3.12 1.97 26.51-13.766 53.21-27.052 80.53-39.054 25.78-11.273 52.08-21.955 79.34-28.363 24.29-5.671 51.06-9.183 74.86.403.99.403 1.18 2.039 0 2.339-25.82 6.776-49.91 18.64-74.26 29.75 10.42-1.319 20.81-3.161 31.14-5.157 1.47-.248 1.96 1.808.59 2.373-41.71 17.253-79.8 42.601-119.36 64.65 17.19-5.268 34.63-9.2 52.1-13.132 1.21-.3 2.14 1.611.9 2.245-74.69 37.306-154.62 63.947-224.62 111.148 15.56-6.528 31.66-11.342 47.91-15.462 1.28-.3 2.01 1.473.89 2.244-7.47 4.9-15.1 9.423-22.37 14.571 85.96-22.015 172.25-45.007 260.82-51.149 1.14-.069 1.56 1.704.57 2.278-12.17 6.99-24.08 14.486-36.7 20.482 10.39-1.858 20.79-3.734 31.21-5.533 1.48-.266 2.02 1.79.6 2.321-56.34 22.35-113.93 41.341-168.49 68.548 45.51-1.105 112.69-12.901 134.73 41.075.36.917-.09 1.739-1.02 1.859-30.68 4.104-61.85 4.035-92.31 9.723 3.59-.385 7.16-.788 10.72-1.173 1.49-.155 1.49 2.313 0 2.458-66.43 6.69-131.87 20.628-197.724 31.704-32.336 5.474-64.913 10.862-97.682 12.061-30.856 1.106-61.656-.633-92.432-2.981 29.972 17.253 63.015 27.241 94.289 41.427.925.42.643 2.022-.273 2.245-73.338 15.428-144.915-12.045-216.645-24.509-.876-.154-1.077-1.439-.482-2.021 5.893-6.177 12.461-11.342 19.544-15.711-10.443 1.79-19.657 7.71-28.533 13.937-.892.651-1.857-.385-1.688-1.387.989-5.183 1.914-10.374 3.353-15.428-4.76 5.02-7.212 11.633-9.165 18.554-.218.737-1.038 1.105-1.705.72-11.103-6.673-20.107-16.747-32.022-21.604 4.293 4.668 8.45 9.491 11.77 15.042.531.874-.337 2.125-1.294 1.79-5.757-2.09-11.433-4.48-17.205-6.578 5.322 4.565 10.58 9.354 13.909 15.796.506 1.019-.338 1.936-1.287 1.79-45.761-6.93-88.356-25.099-127.412-51.098-19.697-13.132-38.751-27.703-59.751-38.463-9.921-5.088-20.115-8.797-30.478-12.652-7.992-3.016-23.436-13.955-22.23-14.04 12.655-1.174 25.462-3.024 37.449-7.727-15.742-1.174-89.707-5.354-88.774-5.774 5.941-2.544 53.962-6.339 60.249-7.358-6.801-.54-17.856-4.498-16.594-4.866 21.289-5.988 39.194-5.654 61.182-4.849 37.087 1.32 73.394 10.057 110.344 13.218 33.775 2.913 67.702 2.844 101.501 5.157 28.581 1.928 57.282 4.369 85.92 2.579 12.751-.806 25.638-2.425 38.132-5.534-19.263 2.193-38.663 3.178-58.231 2.998-53.448-.506-106.582-7.564-159.451-15.497-55.176-8.3-110.352-16.044-165.247-26.538-55.843-10.657-111.494-22.572-167.482-32.492-56.599-10.006-112.684-17.047-170.151-15.026-41.187 1.44-82.117 5.868-122.942 11.608v408.425H1460.34V182.891c-85.7 17.398-169.85 42.574-249.95 80.206Z" opacity=".5"/><path fill="#78AE43" d="M1406.58 443.027c-31.59 6.528-62.3 16.747-93.15 26.265 29.78 5.139 59.91 9.354 90.12 8.095 19.1-.805 37.94-3.495 56.78-6.493v-59.682c-36.53 8.549-72.64 19.137-107.81 32.912 17.98.3 35.79-3.35 53.76-3.495 1.28.008 1.6 2.15.3 2.398Zm53.75 76.42v-9.354c-13.98.317-28.04 3.76-41.74 7.144 13.88.12 27.84 1.285 41.74 2.21Z" opacity=".5"/><path fill="#6DA03C" d="M1304.9 578.212c-67.05 2.338-133.45 14.537-200.5 16.55-36.47 1.105-72.9 2.998-109.082 7.667-18.902 2.424-37.706 5.439-56.415 9.2-14.487 2.947-28.806 6.211-43.414 8.061-30.124 3.735-60.482 4.651-90.631 7.778-28.251 2.896-57.17 7.247-83.194 19.823 28.131 8.617 58.231 4.283 87.118 5.533 74.527 3.299 148.235 15.831 222.328 24.029 72.83 8.044 144.2 25.014 215.89 40.407 63.04 13.621 126.74 24.98 190.87 31.302 7.38.719 14.91 1.405 22.46 2.004V578.58c-51.75 1.559-103.62-2.159-155.43-.368Z" opacity=".5"/><path fill="#78AE43" d="M1256.07 344.649c32.51-5.585 64.63-13.423 97.09-19.411 17.1-3.11 34.29-5.877 51.61-7.324 17.11-1.508 34.37-2.21 51.49-3.915 1.38-.12 2.72-.3 4.07-.454v-41.427c-27.52 6.81-54.3 18.803-80.9 27.721-41.62 13.972-83.72 25.065-123.36 44.81Zm175.03-126.003c1.22.42 1.01 2.39-.32 2.425-9.73.137-19.17 2.124-28.29 5.474 19.72-.266 38.94 3.529 57.83 8.951v-52.605c-47.57 9.654-94.65 21.715-140.86 36.972 37.37-6.185 74.85-13.869 111.64-1.217Z" opacity=".5"/><path fill="#9ACA3C" d="M1452.64 672.155c-57.45-11.462-115.23-20.911-173.35-27.592-61.55-7.093-123.32-11.479-185.2-13.218-63.32-1.756-126.161 3.195-189.425 4.146-59.413.917-118.931-5.405-177.709-14.323-58.432-8.883-116.575-21.296-173.029-39.816-111.615-36.656-209.112-104.004-313.555-157.758-92.986-47.834-192.55-74.938-293.246-96.774v586.777H1460.32V673.774c-2.55-.548-5.07-1.148-7.68-1.619Z"/><path fill="#B2D237" d="M1342.92 716.048c-12.76-1.636-26.61-3.983-38.9-7.949-1.02-.335-11.52-2.527-6.54-2.159 4.97.351 12.63 1.405 17.43 0 .4-.154 1.85-1.593 1.15-2.022-9.51-6.056-23.69-8.48-34.36-11.162-15.19-3.863-30.28-8.061-45.63-11.025-11.53-2.278-23.19-3.794-34.85-4.685a375.776 375.776 0 0 0-21.89-3.23c-39.45-4.771-79.47-5.534-119.08-6.964-37.06-1.302-74.142-.788-111.189-2.228-36.202-1.422-71.898-5.568-107.627-12.129-46.252-8.43-91.644-20.697-136.601-34.848-50.956-8.584-101.589-20.114-150.912-36.287-111.615-36.656-209.112-104.004-313.555-157.758-31.813-16.396-64.446-30.265-97.593-42.412l-1.97-.103c-2.862 0-6.295.137-9.503.9-12.887-3.23-26.161-5.303-39.073-7.53-10.58-1.842-30.213-2.681-38.863 5.217-.273.283-1.07 1.285-.756 1.807 3.095 4.686 9.439 5.74 14.174 8.053 3.94 1.876 8.988 3.615 13.097 6.09-4.358-.548-8.764-.95-13.177-.351-.475.069-1.841 1.611-1.198 2.09 2.878 2.193 6.03 2.073 9.374 2.964 1.286.369 1.994.54 2.323.6-.297-.069-.892-.154-1.31-.103-4.333.6-8.225.788-12.494.034-.595-.119-1.833 1.405-1.262 1.928 9.993 9.234 26.78 13.817 39.274 17.535 3.344.985 6.793 1.739 10.226 2.476-3.433.12-6.986.265-9.744 2.373-.161.12-1.005 1.19-.45 1.302 6.094 1.251 12.293 2.475 18.403 3.461-4.253-.651-8.209.788-12.502 1.858-.322.069-1.238 1.243-.683 1.354 15.814 2.775 29.65 13.749 42.787 22.889 8.007 5.508 16.401 10.76 24.987 15.077 7.211 3.581 12.839 9.808 19.802 13.749.603.368 1.905-1.191 1.535-1.842-1.793-3.212-3.449-6.493-5.113-9.791 6.52 5.654 14.037 9.903 21.176 14.537 7.525 4.866 15.26 9.569 23.227 13.783a1102.505 1102.505 0 0 1 17.912 12.567c-3.312-.12-6.592-.086-10.033.283-.322.017-1.23 1.07-.812 1.37 10.202 7.11 21.2 11.162 30.944 19.377 5.307 4.481 11.521 7.093 16.377 12.293.33.351.667.72 1.005 1.071-13.08-1.936-24.448-10.108-37.376-12.644 3.561 3.298 7.42 6.253 11.287 9.106-7.131-1.319-14.399-2.159-21.369-3.564-17.743-3.615-35.68-9.166-53.745-10.888-28.468-2.741-59.799-7.024-88.074-.582-.475.103-1.898 1.61-1.206 2.107 2.814 2.125 6.367 2.647 9.993 3.076-1.986.18-3.98.488-5.917.968-.475.085-1.994 1.961-1.045 2.124 7.75 1.302 15.227 3.058 22.889 4.951 3.199.789 6.061 2.408 9.406 2.279-5.531.214-11.851-1.945-17.655-1.945-16.256-.034-32.714-.77-49.05-.179 6.174 2.407 12.236 4.934 18.483 7.127 4.285.582 8.586 1.208 12.912 1.807 4.044.523 7.967 1.157 11.963 2.108 2.38.599 5.636.753 6.761.788-.788-.035-2.838 0-6.85.085-7.163.137-14.52 1.791-21.65 2.425-.507.034-1.649 1.61-.925 1.824 5.507 1.705 11.44 2.245 17.012 3.829 7.847 2.245 15.195 6.494 22.382 10.477 15.219 8.481 29.474 17.287 45.376 24.491 13.724 6.228 27.029 11.882 41.637 15.797 4.012 1.053 8 2.244 11.988 3.443 11.504 5.32 22.687 11.393 34.256 16.627 19.915 9.004 42.619 16.499 58.634 32.612.579.566 2.066-1.37 1.712-1.961-4.92-8.147-11.408-15.959-18.732-22.872 4.18 1.824 8.385 3.615 12.662 5.157.676.231 1.616-1.32 1.262-1.894-3.875-5.739-10.556-10.288-15.532-15.076-1.809-1.774-3.819-3.478-5.95-5.089 25.719 11.008 51.752 21.151 78.146 30.154 33.292 11.393 67.107 21.15 101.251 29.297 35.399 8.395 71.151 14.357 107.08 19.745 16.281 2.424 32.569 4.789 48.857 7.247 27.038 10.528 57.452 13.432 85.301 20.191 14.704 3.546 29.57 7.53 43.937 12.464 16.425 5.654 31.089 13.672 46.581 21.262.861.419 2.018-1.302 1.801-2.142-.595-2.613-3.433-5.388-6.624-7.744a966.881 966.881 0 0 1 14.093 4.001c.868.248 2.364-1.859 1.737-2.656-2.235-2.964-5.411-4.566-8.33-6.425 1.793.54 3.594 1.14 5.283 1.559 8.112 2.091 16.304 4.369 24.448 6.545 14.906 4.052 30.487 7.744 45.689 10.357.893.18 2.975-2.313 2.018-3.058-7.597-5.603-17.22-9.423-25.694-13.955 33.525 6.125 67.083 14.169 100.857 18.503-5.724 1.251-11.4 2.69-17.036 4.703.281.034.555.103.86.137 13.644 1.945 27.327 3.315 41.011 4.498-3.433.454-6.914.916-10.347 1.542-16.602 2.612-33.269 5.705-49.412 10.973-.587.197-2.669 2.458-1.407 2.861 5.177 1.671 11.907-.154 17.317-.154 3.256 0 8.12-.822 12.558-.857-3.119.42-6.174 1.071-9.326 2.356-.361.154-1.503 1.576-.723 1.859 5.217 1.91 11.858 1.336 17.406 2.21 8.674 1.354 17.293 3.367 25.895 5.054 4.157.788 8.193 1.593 12.411 1.945 6.87.634-2.361-.052-3.455-.035-8.401.454-16.714 2.844-24.858 4.738-.483.12-1.938 2.004-1.005 2.107 11.923 1.491 24.111.908 36.128 1.979 13.03 1.122 25.97 3.752 38.89 5.619a226.959 226.959 0 0 0 24.09 2.056c-7.24 2.442-14.55 4.549-21.67 5.354-.74.052-1.97 2.245-.89 2.159 4.37-.454 8.95.034 13.25-.634 2.56-.685 5.11-.874 7.63-.505-10.21 3.178-20.93 5.585-31.49 6.964-.62.103-1.69 2.124-1.02 2.073 44.02-2.775 86.52-9.517 128.88-22.718.39-.12 1.73-1.439 1.12-1.893-3.49-2.51-9.44-2.296-14.27-1.962 8.26-.634 16.57-2.261 24.66-3.752 12.6-2.296 25.43-3.161 38.1-5.14 8.06-1.285 18.39-.95 25.89-4.548.26-.154 1.34-1.32.83-1.636-5.1-3.093-12.46-2.493-18.37-2.682 5.16-1.559 10.3-3.161 15.58-4.634 25.42-7.007 50.45-9.492 74.32-22.187.28-.154 1.57-1.705.76-1.859-13.25-2.338-26.93-2.912-40.45-2.227 18.16-4.48 35.73-11.744 53.79-17.047.54-.18 2.23-2.022 1.18-2.424-6.88-2.425-16.72-1.037-23.94-1.439-11.22-.54-22.42-.052-33.56.933-5.28.489-10.53 1.037-15.79 1.525-2.08.137-4.16.283-6.23.386 1.63-.506 3.23-1.003 4.84-1.491 4.88-1.473 10.16-1.405 14.93-3.11.48-.154 2.08-1.858 1.1-2.21-8.26-2.878-19.22-.334-27.89-1.036-.16-.034-.32-.034-.56-.034 6.16-.789 12.33-1.774 18.48-2.647 11.91-1.671 23.7-4.249 35.47-6.579 8.17-1.637 17.79-.986 25.35-4.738.3-.171 1.73-2.004.81-2.056-4.75-.419-9.44.12-14.15-.334 1.1-.12 2.16-.248 3.27-.351 9.39-1.019 22.05.454 30.73-3.384.32-.154 1.71-1.927.81-2.047Z" opacity=".6"/><path fill="#BBD532" d="M55.822 549.231c-34.78-12.987-71.618-23.258-108.68-26.188v22.735c36.226-1.61 72.638.257 108.68 3.453Z" opacity=".5"/><path fill="#78AE43" d="M53.24 488.099c28.212 5.002 56.713 8.146 84.851 13.774 21 4.181 42.426 9.586 62.026 19.043-32.681-22.718-67.919-40.904-101.331-62.388-9.359-6.005-18.451-12.302-28.22-17.519-9.51-5.122-19.158-9.774-28.79-14.52-18.298-9.037-36.604-18.537-51.936-32.723-.86-.788-.096-2.004.788-2.09 12.831-1.439 25.71-1.619 38.598-1.619-12.075-4.934-24.665-7.967-37.368-10.674-1.278-.265-.949-2.39.322-2.39h20.276c-6.239-1.824-12.639-2.998-19.046-4.129-1.206-.214-1.005-2.039 0-2.356 31.628-10.587 64.912-12.215 97.545-6.793-47.281-14.639-95.399-26.367-143.813-36.861v143.572c35.6 3.949 71.006 11.513 106.099 17.673Zm1.609 128.202c27.97.986 55.594 0 83.475-2.158 20.662-1.619 41.364-2.776 61.914-1.251-47.056-10.511-95.157-15.462-141.972-27.352-26.997-6.879-54.686-10.828-82.43-11.668-9.777-.299-19.208.214-28.694 1.251v25.562c9.1 2.476 18.113 5.371 27.07 7.744 26.224 6.973 53.712 6.939 80.637 7.872Z" opacity=".5"/><path fill="#6FA23E" d="M1452.64 672.155c-57.45-11.462-115.23-20.91-173.35-27.592-61.55-7.093-123.32-11.479-185.2-13.218-63.32-1.756-126.161 3.195-189.425 4.146-59.413.917-118.931-5.405-177.709-14.323-2.806-.419-5.62-.873-8.385-1.319 13.997 3.667 27.825 7.967 41.798 11.642 35.8 9.423 72.027 17.081 108.551 22.589 37.762 5.688 75.669 8.198 113.761 9.389 71.739 2.313 143.539 1.405 215.249 3.632 62.42 1.945 127.36 7.093 184.41 36.527 1.02.54.54 2.356-.58 2.279-14.04-1.106-28.02.351-42.04 1.173 19.92 3.23 39.65 7.581 59.19 12.764 1.29.3 1.01 2.39-.31 2.39-11.88.068-23.73 1.071-35.55 2.321 20.26 3.778 40.19 9.706 59.14 18.238.76.351.73 1.756 0 2.107-42.66 22.239-87.52 38.797-133.57 50.91-43.29 11.376-87.2 19.394-131.12 27.421 56.85 2.39 115.45-11.693 170.93 5.954 1.18.385 1.02 1.944 0 2.355-16.17 7.059-33.57 9.817-50.92 11.342-34.66 3.033-69.29 5.406-103.92 9.115-36.26 3.915-72.44 6.339-108.88 6.776-70.821.805-141.916-3.23-211.829-15.797-1.351-.248-.9-2.321.306-2.407 34.096-2.878 66.6-14.485 100.005-21.201-30.406 3.28-60.724 14.203-91.13 7.298-.908-.214-1.181-1.842-.257-2.261 13.169-5.937 26.258-12.285 39.394-18.358-31.419-1.319-62.862-2.69-93.662 2.63-1.463.231-2.074-2.039-.619-2.356 26.62-5.756 52.99-14.64 80.116-17.27-56.994-6.441-114.984-4.317-171.727 3.35-1.287.18-1.568-2.142-.306-2.39 15.324-3.161 29.707-9.603 44.467-14.777-20.268-2.998-40.656 2.261-61.013 2.476-1.286 0-1.599-2.074-.305-2.425 24.344-5.936 49.331-8.018 74.013-11.881-143.813-23.712-286.895-51.484-431.633-68.48-74.72-8.78-149.827-12.935-224.909-16.233-37.207-1.653-74.72-4.668-111.936-3.512-18.314.583-36.645 1.842-54.839 4.249-.594.086-1.157.18-1.72.266V913.58H1460.32V673.774c-2.55-.548-5.07-1.148-7.68-1.619Z" opacity=".5"/><path fill="#9ACA3C" d="M385.931 533.692c1.809-.232 3.545-.823 2.331-2.442-1.262-1.67-3.642-1.859-5.499-1.139-.338-1.611-1.319-3.161-3.111-2.776-1.753.386-1.697 1.791-1.134 3.076-1.6-.634-3.489-1.088-4.438-.12-1.286 1.319.796 2.424 2.726 3.067-1.15.317-2.107.916-2.3 1.953-.426 2.158 4.261 1.439 6.464.933-.257 1.971.523 4.335 2.814 3.778 1.391-.283 1.536-1.088 1.391-2.021 1.415 1.105 3.095 1.79 4.615.231 1.873-1.893-1.439-3.538-3.859-4.54Z"/><path fill="#B2D237" d="M384.622 534.439c-.402.668-1.809.488-3.127-.42-1.343-.891-2.107-2.141-1.68-2.827.393-.668 1.792-.488 3.119.42 1.318.848 2.082 2.142 1.688 2.827Z"/></g><defs><linearGradient id="b" x1="687.964" x2="687.964" y1="227.346" y2="647.679" gradientUnits="userSpaceOnUse"><stop stop-color="#C9EC06"/><stop offset="1" stop-color="#1A5B43"/></linearGradient><clipPath id="a"><path fill="#fff" d="M0 0h1440v629H0z"/></clipPath></defs></svg>