<svg xmlns="http://www.w3.org/2000/svg" width="49" height="26" fill="none"><path fill="#030E14" d="M1.332 25.18s-.089-.258-.185-.716a11.422 11.422 0 0 1-.21-2.042c-.04-.892.04-1.962.258-3.192.217-1.214.619-2.58 1.27-4.011C3.727 12.42 6.003 9.3 9.347 7.235a21.032 21.032 0 0 1 2.605-1.359l.683-.28.161-.081c.177-.08.153-.049.225-.08l.306-.13a18.795 18.795 0 0 1 1.592-.506c2.05-.547 4.027-.804 5.949-.957 3.851-.313 7.533-.176 10.926-.064 3.4.089 6.528.193 9.141-.08 2.613-.233 4.647-.941 5.82-1.825A5.4 5.4 0 0 0 47.962.699a6.71 6.71 0 0 0 .337-.515.345.345 0 0 1 .467-.144.337.337 0 0 1 .168.394l-.008.016s-.064.233-.257.659a5.992 5.992 0 0 1-1.11 1.664c-.586.643-1.43 1.319-2.5 1.85-1.06.562-2.299 1.028-3.674 1.414-2.757.78-5.997 1.287-9.414 1.664-3.401.443-7.003.764-10.371 1.448-1.665.345-3.273.804-4.6 1.479a6.843 6.843 0 0 0-.884.482l-.289.17c-.016.015-.16.08-.088.055l-.113.089-.482.33c-.635.442-1.23.908-1.833 1.334-1.166.892-2.243 1.76-3.28 2.605a31.421 31.421 0 0 0-2.79 2.62c-.852.861-1.576 1.745-2.22 2.557-.666.804-1.181 1.568-1.647 2.211-.434.66-.796 1.19-1.021 1.56-.242.378-.362.57-.362.57l-.008.025a.378.378 0 0 1-.515.12c-.056-.024-.112-.096-.136-.176Z"/><path fill="url(#a)" d="M.991 23.622s0-.209.032-.619c.016-.402.057-.997.153-1.744.08-.37.145-.788.217-1.23.113-.442.21-.925.354-1.44.297-1.012.675-2.154 1.254-3.32.29-.579.579-1.206.981-1.785.185-.297.386-.595.587-.9.193-.297.442-.579.675-.876.241-.282.458-.595.732-.877.281-.265.555-.538.836-.812.522-.595 1.214-1.037 1.865-1.535 1.327-.957 2.846-1.745 4.462-2.348l.603-.241.627-.169 1.246-.346c.836-.265 1.713-.394 2.54-.546.837-.177 1.705-.29 2.566-.394a34.889 34.889 0 0 1 2.556-.266 50.456 50.456 0 0 1 5.009-.136c1.624.032 3.183.144 4.655.297 1.487.145 2.87.274 4.156.33.635.032 1.246.064 1.841.04a13.6 13.6 0 0 0 1.656-.096c.515-.025.99-.153 1.44-.217.442-.073.836-.193 1.197-.298.732-.185 1.263-.434 1.649-.57.37-.145.57-.218.57-.218s-.193.097-.554.265c-.378.17-.893.45-1.624.668-.362.12-.748.273-1.182.37-.458.096-.94.233-1.463.289-1.046.177-2.243.225-3.546.209-1.294-.024-2.685-.129-4.172-.209-1.48-.088-3.015-.153-4.631-.185-1.592-.008-3.256.024-4.928.193-.837.072-1.689.16-2.517.281a35.49 35.49 0 0 0-2.54.41c-.837.161-1.697.266-2.493.531l-1.23.322-.595.152-.587.226c-1.56.57-3.039 1.31-4.333 2.21-.627.483-1.286.909-1.817 1.456-.29.265-.555.514-.836.771-.265.266-.49.555-.732.836-.225.282-.474.54-.691.837-.201.281-.394.57-.579.86-.418.539-.707 1.15-1.03 1.696a24.928 24.928 0 0 0-1.358 3.216c-.169.482-.281.957-.426 1.399-.096.442-.185.844-.265 1.206a21.76 21.76 0 0 0-.265 1.729c-.033.37-.065.578-.065.578Z"/><defs><linearGradient id="a" x1="23.221" x2="23.221" y1="3.306" y2="23.622" gradientUnits="userSpaceOnUse"><stop stop-color="#C9EC06"/><stop offset="1" stop-color="#1A5B43"/></linearGradient></defs></svg>