<svg xmlns="http://www.w3.org/2000/svg" width="1008" height="130" fill="none"><path fill="#fff" d="M924.038 72.197C799.093 58.433 706.927 50.69 787.838 47.24c80.887-3.44 207.873-20.637 123.899-23.226-83.958-2.58-181.246 9.47-248.835 5.17-67.582-4.302 13.313-7.743-72.703-9.471-86.008-1.72-132.099-1.72-94.217-8.603 37.899-6.874-7.147-9.47-34.803-10.315-39.925-1.246-58.376-.86-138.258 0-79.858.845-104.427 14.617-65.531 19.778 38.928 5.177 48.125 9.47-69.624 16.353C70.002 43.8-43.671 49.83 16.755 57.557c60.418 7.758 62.452 6.03 57.347 11.19-5.13 5.162 8.192 6.03 37.891 5.162 29.682-.852 86.008 6.022 130.049 6.882 44.033.86 90.1 9.455 62.452 13.764-27.64 4.31-90.1 14.624-27.64 19.801 62.46 5.162 83.958 11.176 141.321 14.617 57.33 3.449 196.609-7.743 136.191-16.353-60.426-8.586-120.828-17.205-33.79-22.374 87.021-5.154 97.279-8.587 69.623-12.888-27.648-4.301 29.699-1.72 72.703-.868 43.02.868 115.722 9.47 79.865 12.911-35.832 3.441-45.054 16.345-13.297 20.646 31.765 4.309-15.364 12.92 48.133 11.191 63.473-1.72 129.037 0 181.246-6.873 52.211-6.898 90.121-28.405-34.811-42.168Zm-572.946-4.294c-36.356 0-12.807-1.728-39.435-5.177-26.627-3.441 25.092-7.662 32.794-7.308 27.632 1.286 42.988 12.485 6.641 12.485Zm38.389 7.3c-18.941-.86-5.676-5.595 3.071-5.161 26.113 1.294 15.879 6.014-3.071 5.161ZM801.135 97.16c-18.949-.442-4.606-10.926 20.477-9.487 29.707 1.728-1.535 9.905-20.477 9.487Zm60.941-2.605c-9.728.434-10.251-4.076-2.557-3.867 15.871.442 12.269 3.449 2.557 3.867Z"/></svg>