<svg xmlns="http://www.w3.org/2000/svg" width="18" height="14" fill="none"><path fill="#9ACA3C" d="M12.93 7.443c1.81-.217 3.546-.772 2.332-2.291C14 3.584 11.62 3.407 9.763 4.082c-.338-1.51-1.319-2.966-3.111-2.604-1.753.362-1.697 1.68-1.134 2.886-1.6-.595-3.49-1.021-4.438-.113-1.286 1.239.796 2.276 2.726 2.879-1.15.297-2.107.86-2.3 1.833-.426 2.026 4.261 1.35 6.464.876-.257 1.85.523 4.068 2.814 3.545 1.39-.265 1.536-1.02 1.39-1.897 1.416 1.037 3.096 1.68 4.616.217 1.873-1.777-1.44-3.32-3.86-4.26Z"/><path fill="#fff" d="M12.934 6.58c1.825-.217 3.578-.82 2.372-2.307-1.27-1.552-3.658-1.729-5.523-1.07C9.46 1.692 8.464.237 6.647.598 4.935.976 4.991 2.295 5.514 3.501c-1.568-.595-3.45-1.021-4.406-.129-1.295 1.238.796 2.275 2.717 2.87-1.117.298-2.098.877-2.291 1.85-.426 2.01 4.261 1.35 6.432.86-.21 1.84.522 4.052 2.83 3.593 1.374-.313 1.543-1.069 1.415-1.961 1.407 1.053 3.095 1.712 4.598.249 1.857-1.793-1.455-3.329-3.875-4.253Z"/><path fill="#B2D237" d="M11.622 8.145c-.402.627-1.809.458-3.127-.394-1.343-.837-2.107-2.01-1.68-2.654.393-.627 1.792-.458 3.119.394 1.318.796 2.082 2.01 1.688 2.654Z"/></svg>