<svg xmlns="http://www.w3.org/2000/svg" width="635" height="67" fill="none"><path fill="#fff" d="M619.759 29.883c-42.963-2.992-59.932-1.288-95.441-3.424-35.516-2.144-99.147-3.008-127.767-3.008-28.637 0 2.105-6.415-44.023-6.415-46.129 0-2.651-3.855 7.435-5.127 10.073-1.288 75.815-14.126-31.294-11.574-53.042 1.28-124.055 5.999-90.135 9.422 33.945 3.424 59.38 4.288 46.657 9.423-12.712 5.143-8.479 6.84 11.686 7.711 20.141.848 39.221 3.416-11.686 4.272-50.872.855-20.933-5.784-72.62-2.568-51.705 3.207-48.791 4.711-42.945 7.287 5.835 2.56 10.068 4.695-22.809 5.127-32.871.432-117.705 0-113.448 3.424 4.222 3.44-11.146 3.007-22.27 3.847-11.146.856-23.858 6.855 16.424 8.135 40.288 1.288 80.073-4.703 91.724 0 11.668 4.72 7.944 8.143 37.104 6.847 29.165-1.28 76.355-2.567 93.324.432 16.963 2.984 35.509 6 73.681-.848 38.178-6.855 69.981-16.701 109.232-17.99 39.209-1.287 91.184 3.008 132.018-.431 40.846-3.416 98.091-11.543 55.153-14.542ZM249.154 45.297c-15.902-1.728-17.497-6.855-4.761-6.855 12.705 0 13.287.783 35.527 1.711 30.736 1.288-14.871 6.855-30.766 5.144Z"/></svg>