<svg xmlns="http://www.w3.org/2000/svg" width="24" height="25" fill="none"><g fill="#fff" clip-path="url(#a)"><path d="M23.976 7.556c-.056-1.275-.262-2.152-.557-2.911a5.857 5.857 0 0 0-1.388-2.129 5.907 5.907 0 0 0-2.124-1.383C19.143.838 18.27.632 16.995.575 15.711.515 15.303.5 12.045.5c-3.26 0-3.667.014-4.947.07-1.275.057-2.152.263-2.911.558a5.856 5.856 0 0 0-2.129 1.388A5.91 5.91 0 0 0 .675 4.64C.38 5.404.173 6.276.117 7.552c-.06 1.284-.075 1.692-.075 4.95 0 3.259.014 3.667.07 4.947C.17 18.724.375 19.6.67 20.36a5.918 5.918 0 0 0 1.388 2.129 5.9 5.9 0 0 0 2.124 1.383c.764.295 1.636.502 2.911.558 1.28.056 1.688.07 4.947.07 3.258 0 3.666-.014 4.946-.07 1.275-.056 2.152-.263 2.911-.558a6.139 6.139 0 0 0 3.512-3.512c.295-.764.502-1.636.558-2.911.056-1.28.07-1.688.07-4.946 0-3.259-.004-3.667-.06-4.947Zm-2.16 9.8c-.052 1.171-.25 1.804-.413 2.226a3.981 3.981 0 0 1-2.28 2.279c-.421.164-1.059.36-2.226.412-1.266.057-1.646.07-4.848.07s-3.587-.013-4.848-.07c-1.172-.051-1.805-.248-2.227-.412a3.693 3.693 0 0 1-1.378-.896 3.731 3.731 0 0 1-.896-1.378c-.164-.422-.36-1.06-.412-2.227-.057-1.266-.07-1.646-.07-4.848s.013-3.587.07-4.848c.051-1.172.248-1.805.412-2.227.193-.52.497-.994.9-1.378a3.726 3.726 0 0 1 1.379-.896c.422-.164 1.06-.36 2.227-.412 1.266-.057 1.646-.07 4.848-.07 3.207 0 3.586.013 4.848.07 1.172.051 1.805.248 2.227.412.52.192.993.497 1.378.896.398.389.703.858.895 1.378.165.422.361 1.06.413 2.227.056 1.266.07 1.646.07 4.848s-.014 3.577-.07 4.843Z"/><path d="M12.044 6.337a6.167 6.167 0 0 0-6.165 6.165 6.167 6.167 0 0 0 6.165 6.166 6.167 6.167 0 0 0 6.165-6.166 6.167 6.167 0 0 0-6.165-6.165Zm0 10.165a4 4 0 1 1 .002-8 4 4 0 0 1-.002 8Zm7.849-10.409a1.44 1.44 0 1 1-2.878 0 1.44 1.44 0 0 1 2.878 0Z"/></g><defs><clipPath id="a"><path fill="#fff" d="M0 .5h24v24H0z"/></clipPath></defs></svg>