<svg xmlns="http://www.w3.org/2000/svg" width="24" height="24" fill="none"><g clip-path="url(#a)"><path fill="#fff" d="M5.269 7.531H.75a.703.703 0 0 0-.703.703v15.063c0 .388.315.703.703.703h4.519a.703.703 0 0 0 .703-.703V8.234a.703.703 0 0 0-.703-.703Zm-.703 15.063H1.453V8.937h3.113v13.657ZM3.01 0A2.966 2.966 0 0 0 .047 2.962 2.966 2.966 0 0 0 3.01 5.925a2.966 2.966 0 0 0 2.962-2.963A2.966 2.966 0 0 0 3.01 0Zm0 4.519a1.558 1.558 0 0 1-1.557-1.557 1.558 1.558 0 0 1 3.112 0c0 .859-.697 1.557-1.555 1.557Zm13.556 2.913a6.75 6.75 0 0 0-3.065.74.704.704 0 0 0-.7-.64H8.28a.703.703 0 0 0-.703.702v15.063c0 .388.315.703.703.703h4.52a.703.703 0 0 0 .702-.703v-8.285c0-1.065.867-1.932 1.933-1.932s1.933.867 1.933 1.932v8.285c0 .388.315.703.703.703h4.519a.703.703 0 0 0 .703-.703v-9.138a6.735 6.735 0 0 0-6.728-6.727Zm5.322 15.162h-3.113v-7.582a3.343 3.343 0 0 0-3.339-3.338 3.343 3.343 0 0 0-3.339 3.338v7.582H8.984V8.937h3.113v.52a.703.703 0 0 0 1.143.548 5.261 5.261 0 0 1 3.326-1.167 5.327 5.327 0 0 1 5.322 5.321v8.435Z"/></g><defs><clipPath id="a"><path fill="#fff" d="M0 0h24v24H0z"/></clipPath></defs></svg>