<svg xmlns="http://www.w3.org/2000/svg" width="27" height="16" fill="none"><path fill="#030E14" d="M.233 15.621s.008-.523.226-1.407c.088-.442.233-.957.45-1.56.217-.578.458-1.262.828-1.937.345-.716.78-1.447 1.278-2.195a17.807 17.807 0 0 1 1.801-2.21c.707-.692 1.431-1.44 2.315-2.027.435-.305.828-.667 1.287-.916l1.415-.78c.466-.265.973-.458 1.479-.643.49-.185 1.005-.362 1.495-.531 1.021-.297 2.034-.458 3.015-.643.981-.08 1.938-.097 2.838-.113.9-.024 1.745.17 2.517.258.763.104 1.463.209 2.058.434.603.177 1.117.361 1.535.506a14.79 14.79 0 0 1 1.295.523s-.515.08-1.391.169c-.442.032-.973.096-1.56.112-.595.008-1.262.161-1.986.241-.353.057-.723.105-1.109.161-.386.056-.772.064-1.174.177-.772.177-1.608.354-2.452.53-.828.266-1.672.531-2.54.805-.41.185-.813.377-1.239.53-.418.161-.844.33-1.23.563-.796.418-1.608.836-2.347 1.343-.772.458-1.447 1.02-2.147 1.535A24.177 24.177 0 0 0 5 10.202c-.578.555-1.157 1.086-1.631 1.616a38.983 38.983 0 0 0-2.275 2.702c-.563.675-.86 1.101-.86 1.101Z"/><path fill="url(#a)" d="M.91 14.033s.016-.104.08-.305a9.06 9.06 0 0 1 .266-.852c.128-.362.321-.796.53-1.287.234-.49.467-1.06.837-1.616.321-.578.74-1.173 1.181-1.8.218-.322.499-.604.748-.917.273-.298.515-.635.836-.909.306-.28.611-.578.94-.868.298-.305.668-.538 1.03-.82.691-.555 1.495-.973 2.267-1.423.386-.233.82-.378 1.23-.547.426-.168.836-.33 1.246-.498.836-.241 1.697-.426 2.509-.627a60.8 60.8 0 0 1 2.404-.241c.78-.057 1.503.016 2.154.016.346.008.66.016.957.032.314.016.587.08.852.129.53.08.997.152 1.383.217.764.144 1.198.209 1.198.209l-1.222-.065c-.386-.024-.844-.056-1.383-.088-.523-.064-1.134-.024-1.793 0-.651.032-1.359 0-2.098.112-.756.113-1.512.234-2.332.346l-2.404.676c-.394.152-.78.321-1.173.482-.402.16-.812.297-1.174.53-.764.427-1.52.804-2.187 1.335-.338.265-.707.474-1.013.756-.313.281-.619.547-.916.82-.322.25-.571.57-.845.844-.257.29-.546.539-.78.852-.466.571-.908 1.134-1.254 1.68a19.057 19.057 0 0 0-1.6 2.734c-.33.683-.474 1.093-.474 1.093Z"/><defs><linearGradient id="a" x1="12.234" x2="12.234" y1="1.301" y2="14.033" gradientUnits="userSpaceOnUse"><stop stop-color="#C9EC06"/><stop offset="1" stop-color="#1A5B43"/></linearGradient></defs></svg>