<svg xmlns="http://www.w3.org/2000/svg" width="23" height="10" fill="none"><path fill="#030E14" d="M.36 4.674s.242-.33.788-.788c.266-.233.62-.499 1.03-.78.417-.233.892-.563 1.446-.804.555-.281 1.174-.507 1.858-.724a16.001 16.001 0 0 1 2.194-.474c.78-.08 1.592-.169 2.42-.08.836 0 1.68.168 2.509.345.828.17 1.608.523 2.387.812.748.346 1.448.788 2.131 1.182a27.33 27.33 0 0 1 1.729 1.407c.53.474.932 1.021 1.334 1.48.386.474.716.892.949 1.35.249.418.45.804.603 1.118.313.627.458 1.005.458 1.005s-.378-.193-.965-.547c-.29-.169-.659-.378-1.029-.643-.378-.274-.852-.507-1.342-.788-.49-.25-.965-.603-1.528-.868-.563-.258-1.126-.563-1.712-.845-.62-.217-1.238-.506-1.858-.74-.667-.16-1.286-.458-1.953-.554-.66-.145-1.319-.314-1.994-.378-.667-.137-1.319-.145-1.986-.193a25.29 25.29 0 0 0-1.897-.032c-.611.016-1.206.032-1.76.088a32.487 32.487 0 0 0-2.726.29l-1.086.16Z"/><path fill="url(#a)" d="M1.53 4.015s.289-.225.82-.538c.265-.161.594-.33.98-.53.394-.17.836-.41 1.343-.572.257-.096.522-.176.796-.273.273-.096.554-.16.852-.233.587-.193 1.238-.265 1.913-.378.33-.016.676-.048 1.021-.064l.531-.032c.169 0 .354.024.523.032.361.032.715.056 1.085.08.346.064.707.145 1.061.217.732.113 1.391.418 2.066.651.338.105.652.306.95.467.305.177.602.345.892.506.57.362 1.06.812 1.543 1.182.257.177.458.41.651.611.201.217.386.426.563.611.378.394.707.74.94 1.118.242.361.459.675.636.924.33.523.522.82.522.82s-.24-.265-.65-.723c-.202-.234-.443-.515-.74-.829-.25-.33-.636-.643-1.014-.996-.2-.185-.393-.354-.602-.54-.201-.192-.41-.401-.668-.546-.498-.33-.989-.715-1.543-1.045-.571-.273-1.158-.635-1.777-.86-.643-.21-1.27-.507-1.946-.595-.337-.072-.667-.153-1.005-.21-.337-.031-.667-.055-1.013-.088a6.96 6.96 0 0 0-.997-.032l-.972.024c-.644.097-1.27.113-1.858.234-.297.064-.578.112-.852.168-.273.073-.53.145-.788.217-.506.137-.956.298-1.358.427-.394.152-.756.28-1.037.41-.555.217-.869.385-.869.385Z"/><defs><linearGradient id="a" x1="11.374" x2="11.374" y1="1.395" y2="8.614" gradientUnits="userSpaceOnUse"><stop stop-color="#C9EC06"/><stop offset="1" stop-color="#1A5B43"/></linearGradient></defs></svg>