<svg xmlns="http://www.w3.org/2000/svg" width="36" height="16" fill="none"><path fill="#030E14" d="M35.119 10.446s-.12-.136-.306-.33c-.217-.2-.538-.506-.965-.852a21.261 21.261 0 0 0-1.608-1.173 19.059 19.059 0 0 0-2.243-1.206c-1.656-.772-3.714-1.351-5.917-1.528-1.11-.096-2.243-.032-3.392.032-.571.073-1.142.145-1.737.217-.563.113-1.15.266-1.712.386l-.435.097-.056.024h-.024l-.008.008c-.12.024.12-.032.096-.024l-.112.048-.233.064c-.322.105-.635.201-.933.322l-.933.338c-.273.112-.49.233-.74.361-.932.459-1.888 1.005-2.813 1.464-.9.458-1.769.868-2.605 1.27-.82.442-1.592.852-2.323 1.302-.716.442-1.391.868-1.97 1.319a22.07 22.07 0 0 0-1.568 1.214c-.442.37-.796.683-1.045.9a15.67 15.67 0 0 0-.362.346l-.032.032c-.169.145-.41.145-.555-.016a.428.428 0 0 1-.08-.16s-.064-.202-.129-.564a7.473 7.473 0 0 1-.056-1.567 9.25 9.25 0 0 1 .442-2.388c.25-.909.684-1.897 1.31-2.886C3.29 5.518 5.316 3.46 7.922 2.238c1.318-.595 2.717-.99 4.26-1.23.362-.065.772-.145 1.126-.177l.965-.089c.33-.024.66-.056.989-.096l.61-.073.548-.016c.731-.032 1.447-.088 2.17-.096.724.048 1.447.08 2.163.112a22.71 22.71 0 0 1 4.124.82c1.295.41 2.517.893 3.594 1.488a18.494 18.494 0 0 1 2.854 1.89c.836.666 1.512 1.35 2.09 1.969a16.95 16.95 0 0 1 1.335 1.704c.338.507.57.909.731 1.19.161.298.218.45.218.45a.346.346 0 0 1-.17.467.388.388 0 0 1-.41-.105Z"/><path fill="url(#a)" d="M1.09 12.334s.032-.17.096-.466c.065-.29.161-.724.346-1.255.185-.53.442-1.174.804-1.881.362-.7.82-1.48 1.447-2.227.153-.193.314-.386.483-.579.168-.2.353-.378.538-.563.185-.185.362-.386.563-.562.209-.17.434-.346.651-.531.426-.37.925-.667 1.431-.989.475-.346 1.037-.563 1.6-.836.547-.297 1.158-.442 1.745-.651.603-.233 1.23-.322 1.857-.475.322-.056.627-.152.957-.176l.972-.097.973-.112.241-.017.242-.008.49-.008c.643.016 1.278-.016 1.938.04.643.057 1.294.121 1.93.17.642.12 1.27.216 1.888.329.603.145 1.206.314 1.81.458.578.17 1.149.394 1.696.58.546.2 1.069.473 1.584.69a27.247 27.247 0 0 1 2.733 1.552c.402.266.772.547 1.133.82.346.266.66.547.973.804a26.15 26.15 0 0 1 1.472 1.415c.763.828 1.11 1.383 1.11 1.383s-.105-.129-.306-.346c-.193-.225-.515-.53-.925-.924a16.935 16.935 0 0 0-1.528-1.303A28.355 28.355 0 0 0 29.88 5.1a23.67 23.67 0 0 0-2.75-1.416c-.506-.193-1.005-.434-1.551-.603-.547-.16-1.102-.378-1.665-.53-.578-.137-1.165-.298-1.76-.427-.603-.096-1.222-.185-1.841-.289-.62-.048-1.23-.097-1.865-.145-.611-.048-1.27-.008-1.906-.016h-.716l-.233.032-.932.08-.94.081c-.306.032-.612.12-.917.169-.603.129-1.222.2-1.793.426-.58.193-1.166.33-1.689.595-.522.25-1.085.458-1.56.772-.49.281-.98.547-1.406.892l-.627.483c-.201.16-.386.353-.58.522-.184.169-.377.33-.538.523-.169.177-.321.362-.49.53A15.497 15.497 0 0 0 2.6 8.885a11.64 11.64 0 0 0-.9 1.793c-.217.514-.37.932-.458 1.222a2.989 2.989 0 0 0-.153.434Z"/><defs><linearGradient id="a" x1="17.941" x2="17.941" y1=".901" y2="12.334" gradientUnits="userSpaceOnUse"><stop stop-color="#C9EC06"/><stop offset="1" stop-color="#1A5B43"/></linearGradient></defs></svg>