<svg xmlns="http://www.w3.org/2000/svg" width="9" height="5" fill="none"><path fill="#030E14" d="M.968 1.578s.104-.097.33-.225c.12-.072.257-.137.433-.21.17-.072.354-.168.563-.216A5.406 5.406 0 0 1 3.838.702c.29.016.587.032.876.096.161.04.314.048.467.113l.434.144c.297.097.57.266.836.402.257.17.49.354.723.523.21.193.386.402.563.587.177.177.306.402.434.587.137.185.241.353.306.522.088.17.136.314.193.443.088.233.136.377.136.377s-.128-.096-.313-.249c-.097-.088-.217-.185-.338-.305-.12-.121-.273-.234-.442-.37-.169-.129-.322-.274-.515-.41-.193-.137-.393-.266-.603-.41-.2-.129-.426-.25-.659-.378-.112-.056-.233-.105-.337-.16a2.343 2.343 0 0 0-.354-.154c-.25-.088-.49-.177-.74-.24-.249-.065-.506-.113-.74-.162-.24-.032-.49-.064-.723-.08a5.877 5.877 0 0 0-.643-.04c-.41-.008-.772.008-1.021.016-.258.008-.41.024-.41.024Z"/><path fill="url(#a)" d="M1.335 1.456s.129-.064.338-.152c.217-.089.522-.21.932-.29A5.65 5.65 0 0 1 3.964.861a5.694 5.694 0 0 1 1.576.274c.24.088.506.193.731.337.241.13.459.282.652.443.184.16.37.33.522.498.089.089.169.169.233.241.057.097.129.17.185.258.113.168.225.305.298.45.088.136.168.265.217.362.096.217.152.33.152.33s-.064-.113-.2-.298c-.073-.097-.137-.201-.242-.338-.096-.137-.209-.265-.337-.426-.057-.072-.137-.145-.21-.225a1.424 1.424 0 0 0-.216-.225 5.91 5.91 0 0 0-.54-.45c-.2-.161-.41-.282-.626-.41a5.437 5.437 0 0 0-.708-.314c-.98-.346-2.05-.346-2.83-.217a10.01 10.01 0 0 0-.932.193c-.217.08-.354.112-.354.112Z"/><defs><linearGradient id="a" x1="4.933" x2="4.933" y1=".861" y2="4.053" gradientUnits="userSpaceOnUse"><stop stop-color="#C9EC06"/><stop offset="1" stop-color="#1A5B43"/></linearGradient></defs></svg>