<svg xmlns="http://www.w3.org/2000/svg" width="47" height="21" fill="none"><path fill="#030E14" d="M45.737 20.771s-.096-.201-.25-.563a21.665 21.665 0 0 0-.811-1.52 25.792 25.792 0 0 0-1.48-2.226 24.597 24.597 0 0 0-2.234-2.573 24.115 24.115 0 0 0-3.072-2.54 25.117 25.117 0 0 0-3.803-2.155c-.707-.273-1.382-.627-2.13-.852-.756-.217-1.471-.49-2.235-.7-.78-.169-1.552-.33-2.324-.506-.795-.129-1.607-.193-2.395-.298l-.603-.072-.515-.008c-.442-.016-.868-.032-1.31-.032l-1.295-.008c-.434.024-.771.072-1.15.112-1.454.137-2.958.37-4.357.571-1.415.201-2.741.418-4.028.651-1.262.274-2.46.563-3.561.917-.539.193-1.094.345-1.592.554-.241.097-.49.177-.74.274-.233.096-.466.2-.7.297-.465.177-.883.386-1.27.587-.41.169-.771.37-1.093.539-.667.354-1.182.66-1.551.876l-.54.33-.023.032a.387.387 0 0 1-.523-.129.365.365 0 0 1-.064-.249s.048-.25.169-.691a11.83 11.83 0 0 1 .715-1.857c.378-.764.909-1.665 1.664-2.59.354-.482.796-.94 1.263-1.422.474-.499 1.029-.949 1.608-1.407 1.173-.925 2.58-1.745 4.156-2.428A18.89 18.89 0 0 1 14.816.262a22.794 22.794 0 0 1 5.668.104c.475.057.99.105 1.44.177l1.27.266c.434.08.852.168 1.294.24l.764.153.691.177c.909.242 1.825.459 2.718.716.876.33 1.76.651 2.629.973.86.353 1.68.78 2.5 1.181.812.386 1.552.933 2.3 1.391 1.47.99 2.797 2.058 3.915 3.2a26.853 26.853 0 0 1 2.854 3.45 25.502 25.502 0 0 1 1.865 3.223c.233.507.442.973.643 1.415.153.442.298.86.434 1.238a21.2 21.2 0 0 1 .483 1.76c.088.427.128.644.128.644a.357.357 0 0 1-.297.394.307.307 0 0 1-.378-.193Z"/><path fill="url(#a)" d="M.8 10.633s.065-.209.202-.603c.153-.386.386-.964.804-1.624.177-.345.458-.683.723-1.077.29-.37.62-.764.997-1.174.772-.756 1.697-1.608 2.878-2.275.298-.169.571-.37.885-.515.321-.152.651-.297.973-.458.65-.346 1.374-.53 2.114-.804 1.48-.474 3.08-.804 4.76-.956.836-.145 1.688-.097 2.548-.145.868-.065 1.737-.008 2.621.048.442.016.884.04 1.335.064l.321.016c.161.017.225.033.354.049l.66.096c.875.145 1.752.217 2.628.41.868.241 1.753.483 2.621.716.836.297 1.664.65 2.508.973 1.608.731 3.144 1.567 4.527 2.54.723.442 1.326 1.005 1.961 1.511.644.499 1.174 1.086 1.745 1.616.563.523 1.045 1.102 1.528 1.64.482.523.892 1.094 1.294 1.625.418.53.78 1.069 1.117 1.583.33.507.636.997.9 1.48.274.474.515.916.724 1.334.218.426.41.804.555 1.174.66 1.415.909 2.267.909 2.267s-.322-.836-1.045-2.203c-.17-.353-.378-.715-.611-1.125a18.68 18.68 0 0 0-.788-1.295c-.29-.466-.603-.932-.965-1.423-.354-.482-.716-1.013-1.142-1.511-.418-.53-.836-1.07-1.35-1.576-.483-.522-.957-1.077-1.528-1.576-.563-.506-1.11-1.053-1.76-1.52-.636-.473-1.223-1.036-1.938-1.446-1.35-.94-2.87-1.745-4.43-2.444-.812-.298-1.624-.635-2.452-.917a551.31 551.31 0 0 0-2.509-.66c-.852-.2-1.76-.288-2.62-.441l-.652-.105c-.096-.016-.24-.04-.297-.04l-.338-.024c-.434-.024-.868-.056-1.302-.08-.869-.057-1.72-.121-2.573-.08-.836.047-1.688-.009-2.508.128-1.632.153-3.208.418-4.655.82-.716.233-1.44.41-2.074.723-.33.145-.644.274-.95.41-.32.137-.594.33-.884.483-.273.169-.578.313-.836.49a20.17 20.17 0 0 1-.747.53c-.507.33-.893.757-1.31 1.086a17.9 17.9 0 0 0-1.03 1.102c-.281.377-.57.691-.772 1.02a10.713 10.713 0 0 0-.876 1.552c-.177.402-.25.611-.25.611Z"/><defs><linearGradient id="a" x1="23.396" x2="23.396" y1=".973" y2="20.144" gradientUnits="userSpaceOnUse"><stop stop-color="#C9EC06"/><stop offset="1" stop-color="#1A5B43"/></linearGradient></defs></svg>