<svg xmlns="http://www.w3.org/2000/svg" width="37" height="13" fill="none"><path fill="#030E14" d="M35.572 12.086s-.137-.104-.402-.297a61.632 61.632 0 0 0-1.101-.796c-.483-.322-1.037-.7-1.68-1.101a41.493 41.493 0 0 0-2.14-1.214 38.684 38.684 0 0 0-2.508-1.166c-.9-.362-1.832-.692-2.805-1.053a62.09 62.09 0 0 0-3.087-1.07c-.563-.128-1.126-.265-1.697-.394-.579-.112-1.174-.144-1.777-.209l-.45-.048-.048-.008h-.016.072-2.323c-.322.008-.58.048-.86.064a22.15 22.15 0 0 0-3.41.475 18.225 18.225 0 0 0-3.127.973 15.61 15.61 0 0 0-2.637 1.35 13.862 13.862 0 0 0-2.002 1.552A16.682 16.682 0 0 0 2.2 10.583c-.354.434-.603.796-.772 1.037-.145.241-.225.386-.225.386l-.008.016a.294.294 0 0 1-.41.105.3.3 0 0 1-.121-.314s.04-.185.137-.482c.12-.306.29-.756.546-1.287.25-.53.595-1.173 1.102-1.857.474-.7 1.093-1.423 1.84-2.162.74-.756 1.625-1.48 2.622-2.171 1.005-.684 2.154-1.27 3.368-1.801 1.239-.499 2.517-.949 3.948-1.23.346-.08.732-.169 1.053-.225l.973-.145.965-.153.24-.04.13-.016.225-.016.53-.032L20.49.059c.731.008 1.455.008 2.179.016.731.04 1.455.129 2.17.225.716.08 1.391.338 2.075.515 2.7.9 4.871 2.62 6.31 4.325.724.852 1.279 1.72 1.689 2.525.193.402.362.796.53 1.141.137.378.234.724.33 1.021.169.611.257 1.118.29 1.463.032.362.024.531.024.531-.008.177-.153.33-.33.314-.064.016-.137-.016-.185-.049Z"/><path fill="url(#a)" d="M1.505 10.43s.233-.578.844-1.495A17.189 17.189 0 0 1 5.388 5.56a18.238 18.238 0 0 1 2.476-1.801c.909-.57 1.938-1.11 3.047-1.536 1.086-.458 2.267-.796 3.481-1.093.603-.129 1.23-.241 1.841-.362.636-.08 1.255-.153 1.882-.225l.466-.04c.201-.024.33-.016.498-.016l.925-.016.933-.016c.305 0 .619.048.932.064 1.27.064 2.477.281 3.626.563 1.158.297 2.235.715 3.192 1.222.973.506 1.841 1.069 2.565 1.688.361.306.707.595.997.925.305.305.562.619.811.916.49.595.837 1.158 1.11 1.632.547.957.715 1.568.715 1.568s-.233-.579-.836-1.495a11.736 11.736 0 0 0-1.198-1.52A7.702 7.702 0 0 0 32 5.173c-.16-.137-.305-.281-.474-.434-.169-.137-.354-.274-.53-.418a12.726 12.726 0 0 0-2.541-1.52c-.94-.458-1.994-.804-3.112-1.085-1.11-.25-2.283-.442-3.48-.49-.306-.017-.604-.049-.901-.049l-.925.024-.94.024c-.153.008-.33 0-.45.017l-.459.056-1.833.193c-.595.112-1.19.217-1.8.337-1.175.266-2.332.587-3.393 1.005-.547.177-1.046.459-1.568.668-.507.209-.981.49-1.44.74A18.737 18.737 0 0 0 5.67 5.88C4.214 7.03 3.145 8.155 2.486 9.023c-.338.426-.58.78-.748 1.02-.153.258-.233.387-.233.387Z"/><defs><linearGradient id="a" x1="18.195" x2="18.195" y1=".454" y2="10.431" gradientUnits="userSpaceOnUse"><stop stop-color="#C9EC06"/><stop offset="1" stop-color="#1A5B43"/></linearGradient></defs></svg>