<svg xmlns="http://www.w3.org/2000/svg" width="1349" height="42" fill="none"><path fill="#A7DB86" d="M14.469 12.281c4.135-1.125 10.145-5.257 52.977 0C110.278 17.538 184 22.657 206.88 20.472c22.881-2.184 55.946-11.948 96.522-7.44 40.579 4.506 36.822 14.267 9.392 14.267-27.428 0-60.115-5.257-73.642 0-13.526 5.257-34.317 9.386-56.609 9.386s-57.611-7.51-72.64-7.51c-15.03 0-36.07.75-56.359 3.753-20.289 3.004-43.96 9.386-51.098-.375-7.138-9.76 9.761-18.774 9.761-18.774l2.262-1.498Zm368.463 15.017c3.006-4.755 40.076-15.77 61.119-15.269 21.039.5 52.099 3.74 88.67 7.626 36.571 3.887 29.557 4.241 73.143 4.066 43.585-.18 92.678 1.558 112.716-4.066 20.039-5.623 93.189-5.623 96.19-4.123 3.001 1.503.998 10.514-31.565 14.017-32.563 3.505-74.87 2.002-97.05 5.006-22.179 3.003-32.699 3.422-67.267 3.211-34.566-.208-58.113-6.215-87.168-6.717-29.055-.502-57.876-4.507-79.787-.502-21.911 4.005-49.465 7.926-55.475 7.216-6.01-.704-13.526-10.465-13.526-10.465Zm454.882.23c20.038.522 77.652-15.5 64.125-18.504-13.526-3.003-59.616-3.003-52.099-5.508 7.513-2.504 34.066-4.08 57.111-2.79 23.045 1.29 61.618 7.502 90.676 8.901 29.053 1.4 79.153-10.615 84.163-6.11 5.01 4.506 16.53 20.3-27.05 21.414-43.59 1.113-56.109-2.891-80.155 2.366s-51.098 12.349-77.15 10.554c-26.051-1.794-54.22 1.21-66.935-2.796-12.725-4.002 7.314-7.527 7.314-7.527ZM1090.3 37.854c18.04-1.293 35.57-13.982 60.12-18.65 24.55-4.67 73.14-9.586 97.69-5.376 24.54 4.21 95.18-1.936 99.69 6.645 4.51 8.578-11.02 12.583-59.62 10.081-48.59-2.504-74.14-6.51-92.68-.5-18.53 6.008-70.63 11.516-80.65 11.516-10.02-.003-24.55-3.716-24.55-3.716Z"/></svg>