<svg xmlns="http://www.w3.org/2000/svg" width="35" height="19" fill="none"><path fill="#030E14" d="M34.34 18.236s-1.81-1.898-4.51-4.76c-1.27-1.342-2.782-2.733-4.326-4.116-.78-.707-1.568-1.43-2.444-2.09a11.084 11.084 0 0 0-2.918-1.616l-.386-.145c-.065-.032-.29-.096-.426-.137l-.933-.273c-.563-.16-1.15-.297-1.737-.426-1.181-.233-2.355-.442-3.505-.523-2.3-.184-4.47-.032-6.279.41a15.582 15.582 0 0 0-4.213 1.665c-.49.281-.844.53-1.077.707a3.633 3.633 0 0 0-.354.273l-.008.009a.284.284 0 0 1-.41-.017.303.303 0 0 1-.032-.361s.113-.153.314-.394c.185-.25.506-.611.948-1.03.836-.835 2.251-1.873 4.14-2.781 1.89-.9 4.294-1.624 6.915-1.857a25.318 25.318 0 0 1 4.068-.08c.691.04 1.399.112 2.122.192l.981.145c.193.032.274.032.539.088l.547.105c2.926.611 5.893 1.777 8.071 3.626 2.147 1.865 3.482 4.156 4.294 6.158.418 1.005.699 1.946.876 2.814.177.852.281 1.6.322 2.227.088 1.262-.049 2.01-.049 2.01a.319.319 0 0 1-.361.265c-.073-.008-.145-.04-.17-.088Z"/><path fill="url(#a)" d="M1.845 6.034s.112-.129.337-.346c.226-.2.58-.522 1.037-.868.234-.169.507-.362.796-.57.298-.17.62-.379.973-.596.354-.2.74-.41 1.15-.627.418-.185.844-.394 1.318-.595.475-.16.965-.354 1.48-.53.53-.145 1.069-.298 1.64-.443.563-.112 1.157-.217 1.752-.33a60.857 60.857 0 0 1 1.858-.176c.643-.008 1.286-.008 1.937-.024.643.024 1.302.104 1.962.16.675.017 1.318.185 1.986.29.321.072.667.12.996.185l.973.257.973.265.482.137c.21.064.338.12.499.193l.916.362c.314.12.62.233.917.41 1.214.61 2.323 1.334 3.28 2.187.483.426.949.836 1.335 1.326.185.225.402.458.587.684.169.24.337.498.506.731.683.949 1.174 1.938 1.584 2.854.418.925.691 1.81.9 2.597.089.402.17.78.25 1.126.072.345.128.659.168.948.177 1.158.17 1.825.17 1.825s-.025-.16-.065-.474a61.978 61.978 0 0 0-.233-1.327 10.62 10.62 0 0 1-.225-.932c-.113-.338-.21-.708-.338-1.086a21.024 21.024 0 0 0-1.013-2.508c-.442-.868-.957-1.825-1.648-2.71-.169-.232-.346-.458-.507-.683a43.285 43.285 0 0 1-.595-.635c-.385-.45-.852-.844-1.302-1.238-.916-.812-1.994-1.487-3.135-2.042-.258-.16-.563-.265-.885-.386l-.924-.354c-.145-.056-.33-.128-.442-.16l-.49-.137-.958-.257-.94-.266c-.322-.072-.635-.12-.957-.185-.651-.096-1.294-.273-1.938-.313-.635-.048-1.27-.137-1.905-.169-.627-.008-1.254-.008-1.865-.008-.62.048-1.222.096-1.825.137-.579.08-1.158.169-1.705.249-.562.112-1.093.25-1.607.378-.507.136-.997.313-1.48.458-.458.177-.9.362-1.326.523-.402.193-.788.37-1.158.53-.354.193-.675.378-.989.539-.29.193-.563.354-.812.506a32.28 32.28 0 0 0-1.11.78 86.46 86.46 0 0 1-.385.338Z"/><defs><linearGradient id="a" x1="18.226" x2="18.226" y1=".929" y2="17.466" gradientUnits="userSpaceOnUse"><stop stop-color="#C9EC06"/><stop offset="1" stop-color="#1A5B43"/></linearGradient></defs></svg>